<?xml version="1.0" encoding="UTF-8" standalone="no"?>
<svg
   xmlns:dc="http://purl.org/dc/elements/1.1/"
   xmlns:cc="http://creativecommons.org/ns#"
   xmlns:rdf="http://www.w3.org/1999/02/22-rdf-syntax-ns#"
   xmlns:svg="http://www.w3.org/2000/svg"
   xmlns="http://www.w3.org/2000/svg"
   viewBox="0 0 960 720"
   height="720"
   width="960"
   xml:space="preserve"
   id="svg2"
   version="1.1"><metadata
     id="metadata8"><rdf:RDF><cc:Work
         rdf:about=""><dc:format>image/svg+xml</dc:format><dc:type
           rdf:resource="http://purl.org/dc/dcmitype/StillImage" /></cc:Work></rdf:RDF></metadata><defs
     id="defs6" /><g
     transform="matrix(1.3333333,0,0,-1.3333333,0,720)"
     id="g10"><g
       transform="scale(0.1)"
       id="g12"><path
         id="path14"
         style="fill:#fbfcfc;fill-opacity:1;fill-rule:nonzero;stroke:none"
         d="M 7200,0 H 0 V 5400 H 7200 V 0" /><path
         id="path16"
         style="fill:#818283;fill-opacity:1;fill-rule:evenodd;stroke:none"
         d="m 3064.63,3111.51 -23.03,16.01 -7.16,0.45 -24.05,28.17 -36.54,21.47 14.48,33.64 -1.53,20.01 11.1,29.61 109.85,-7.07 -0.75,-14.72 7.7,-10.2 3.87,-13.88 15.94,-18.3 1.14,-13.52 7.5,-10.77 0.27,-5.9 -8.24,-5.44 -21.91,4.66 -10.95,-4.35 -1.46,-5.93 3.91,-16.51 -4.51,-8.83 -13.17,2.67 -2.01,-7.45 -6.33,-2.76 -7.4,-8.87 -6.72,-2.19" /><path
         id="path18"
         style="fill:none;stroke:#fbfcfc;stroke-width:2.5;stroke-linecap:round;stroke-linejoin:round;stroke-miterlimit:4;stroke-dasharray:none;stroke-opacity:1"
         d="m 3064.63,3111.51 -23.03,16.01 -7.16,0.45 -24.05,28.17 -36.54,21.47 14.48,33.64 -1.53,20.01 11.1,29.61 109.85,-7.07 -0.75,-14.72 7.7,-10.2 3.87,-13.88 15.94,-18.3 1.14,-13.52 7.5,-10.77 0.27,-5.9 -8.24,-5.44 -21.91,4.66 -10.95,-4.35 -1.46,-5.93 3.91,-16.51 -4.51,-8.83 -13.17,2.67 -2.01,-7.45 -6.33,-2.76 -7.4,-8.87 z" /><path
         id="path20"
         style="fill:#818283;fill-opacity:1;fill-rule:evenodd;stroke:none"
         d="m 3143.42,3166.51 -0.27,5.9 -7.5,10.77 -1.14,13.52 -15.94,18.3 -3.87,13.88 -7.7,10.2 0.75,14.72 149.5,-3.22 -10.18,-28.16 -10.9,-13.09 5.44,-22.07 -2.27,-4.6 -7.29,-5.22 -1.66,-8.21 -6.75,-2.17 -7.39,4.69 -6.15,13.66 -14.02,8.23 -4.84,0.52 -4.99,-3.49 -5.44,1.46 -3.05,-3.66 -5.06,2.99 -7.89,-3.9 -21.39,-21.05" /><path
         id="path22"
         style="fill:none;stroke:#fbfcfc;stroke-width:2.5;stroke-linecap:round;stroke-linejoin:round;stroke-miterlimit:4;stroke-dasharray:none;stroke-opacity:1"
         d="m 3143.42,3166.51 -0.27,5.9 -7.5,10.77 -1.14,13.52 -15.94,18.3 -3.87,13.88 -7.7,10.2 0.75,14.72 149.5,-3.22 -10.18,-28.16 -10.9,-13.09 5.44,-22.07 -2.27,-4.6 -7.29,-5.22 -1.66,-8.21 -6.75,-2.17 -7.39,4.69 -6.15,13.66 -14.02,8.23 -4.84,0.52 -4.99,-3.49 -5.44,1.46 -3.05,-3.66 -5.06,2.99 -7.89,-3.9 z" /><path
         id="path24"
         style="fill:#818283;fill-opacity:1;fill-rule:evenodd;stroke:none"
         d="m 3408.52,3114.96 -6.78,5.1 -20.46,0.84 -2.76,8.36 -3.09,0.75 -12.33,-4.26 -11.4,2.02 -14.6,-11.33 -9.88,5.45 -9.27,-0.26 -3.49,2.64 -6.16,-2.71 -4.64,1.48 -5.55,-5.56 -31.02,-6.16 1.19,38.08 -6.11,12.51 -12.06,7.7 -10.77,13.05 2.27,4.6 -5.44,22.07 10.9,13.09 10.18,28.16 22.09,-0.74 76.84,-2.59 59.46,-2.63 -5.99,-123.57 -1.13,-6.09" /><path
         id="path26"
         style="fill:none;stroke:#fbfcfc;stroke-width:2.5;stroke-linecap:round;stroke-linejoin:round;stroke-miterlimit:4;stroke-dasharray:none;stroke-opacity:1"
         d="m 3408.52,3114.96 -6.78,5.1 -20.46,0.84 -2.76,8.36 -3.09,0.75 -12.33,-4.26 -11.4,2.02 -14.6,-11.33 -9.88,5.45 -9.27,-0.26 -3.49,2.64 -6.16,-2.71 -4.64,1.48 -5.55,-5.56 -31.02,-6.16 1.19,38.08 -6.11,12.51 -12.06,7.7 -10.77,13.05 2.27,4.6 -5.44,22.07 10.9,13.09 10.18,28.16 22.09,-0.74 76.84,-2.59 59.46,-2.63 -5.99,-123.57 z" /><path
         id="path28"
         style="fill:#818283;fill-opacity:1;fill-rule:nonzero;stroke:none"
         d="m 4957.49,3246.66 -8.06,0.14 40.2,-139.12 3.39,1.71 z m -15.71,-86.2 -1.19,30.39 -7.83,-24.28 -17.04,22.46 10.78,-1.6 -2.14,8.87 -38.9,28.34 19.57,4.55 -4.31,17.92 -27.56,0.09 -68.63,-0.46 54.8,-54.28 3.43,-6.05 -0.94,-8.74 22.28,-18.06 17.3,1.96 3.74,-7.4 5.26,0.74 2.83,-7.61 22.68,-10.61 -5.27,-14.64 14.8,-6.14 19.83,-58.32 19.06,-13.75 -0.41,16.75 z m -17.83,53.42 17.76,-1.7 4.36,28.86 -29.35,5.95 -9.65,0.02 17.22,-16.33 -0.34,-16.8" /><path
         id="path30"
         style="fill:none;stroke:#fbfcfc;stroke-width:2.5;stroke-linecap:round;stroke-linejoin:round;stroke-miterlimit:4;stroke-dasharray:none;stroke-opacity:1"
         d="m 4957.49,3246.66 -8.06,0.14 40.2,-139.12 3.39,1.71 z m -15.71,-86.2 -1.19,30.39 -7.83,-24.28 -17.04,22.46 10.78,-1.6 -2.14,8.87 -38.9,28.34 19.57,4.55 -4.31,17.92 -27.56,0.09 -68.63,-0.46 54.8,-54.28 3.43,-6.05 -0.94,-8.74 22.28,-18.06 17.3,1.96 3.74,-7.4 5.26,0.74 2.83,-7.61 22.68,-10.61 -5.27,-14.64 14.8,-6.14 19.83,-58.32 19.06,-13.75 -0.41,16.75 z m -17.83,53.42 17.76,-1.7 4.36,28.86 -29.35,5.95 -9.65,0.02 17.22,-16.33 z" /><path
         id="path32"
         style="fill:#818283;fill-opacity:1;fill-rule:evenodd;stroke:none"
         d="m 4504.29,3114.3 -5.74,-11.06 -21.65,-1.29 1.72,-20.4 -5.4,-0.04 -8.63,8.42 -18.28,8.49 3.52,15.51 -11.79,6.59 -1.82,10.91 -11.93,15.93 -28.41,-7.26 -6.55,0.74 -4.91,4.31 -2.75,5.79 6.9,20.02 -0.25,12.79 -25.56,14.37 -5.08,13.48 -16.21,2.68 -17.09,-2.27 -51.36,15.28 0.79,18.13 45.65,0.21 150.18,0.2 48.28,1 7.76,-12.64 21.08,-7.89 5.69,-10.1 -2.7,-5.65 -14.9,0.26 -4.06,-5.99 -0.89,-16.57 -25.61,-73.95" /><path
         id="path34"
         style="fill:none;stroke:#fbfcfc;stroke-width:2.5;stroke-linecap:round;stroke-linejoin:round;stroke-miterlimit:4;stroke-dasharray:none;stroke-opacity:1"
         d="m 4504.29,3114.3 -5.74,-11.06 -21.65,-1.29 1.72,-20.4 -5.4,-0.04 -8.63,8.42 -18.28,8.49 3.52,15.51 -11.79,6.59 -1.82,10.91 -11.93,15.93 -28.41,-7.26 -6.55,0.74 -4.91,4.31 -2.75,5.79 6.9,20.02 -0.25,12.79 -25.56,14.37 -5.08,13.48 -16.21,2.68 -17.09,-2.27 -51.36,15.28 0.79,18.13 45.65,0.21 150.18,0.2 48.28,1 7.76,-12.64 21.08,-7.89 5.69,-10.1 -2.7,-5.65 -14.9,0.26 -4.06,-5.99 -0.89,-16.57 z" /><path
         id="path36"
         style="fill:#818283;fill-opacity:1;fill-rule:evenodd;stroke:none"
         d="m 4664.18,3111.34 -79.72,-1.55 -4.75,2.25 -45.79,-0.89 -29.63,3.15 25.61,73.95 0.89,16.57 4.06,5.99 14.9,-0.26 2.7,5.65 -5.69,10.1 -21.08,7.89 -7.76,12.64 85.68,-0.9 5.31,-20.99 -12.63,-19.07 -2.68,-16.71 3.44,-7.36 6.57,-3.9 61.83,-32.46 11.45,-20.59 -12.71,-13.51" /><path
         id="path38"
         style="fill:none;stroke:#fbfcfc;stroke-width:2.5;stroke-linecap:round;stroke-linejoin:round;stroke-miterlimit:4;stroke-dasharray:none;stroke-opacity:1"
         d="m 4664.18,3111.34 -79.72,-1.55 -4.75,2.25 -45.79,-0.89 -29.63,3.15 25.61,73.95 0.89,16.57 4.06,5.99 14.9,-0.26 2.7,5.65 -5.69,10.1 -21.08,7.89 -7.76,12.64 85.68,-0.9 5.31,-20.99 -12.63,-19.07 -2.68,-16.71 3.44,-7.36 6.57,-3.9 61.83,-32.46 11.45,-20.59 z" /><path
         id="path40"
         style="fill:#818283;fill-opacity:1;fill-rule:evenodd;stroke:none"
         d="m 4913.23,3147.3 17.52,-52.79 -8.17,-10.08 -68.29,61.04 -3.49,4.03 -7.68,1.26 -7.56,14.02 -7.7,1.06 -4.34,7.42 -9.89,4.39 -6.1,7.48 -28.62,15.77 -31.25,23.88 -22.08,21.62 22.34,0.23 56.61,0.11 54.8,-54.28 3.43,-6.05 -0.94,-8.74 22.28,-18.06 17.3,1.96 3.74,-7.4 5.26,0.74 2.83,-7.61" /><path
         id="path42"
         style="fill:none;stroke:#fbfcfc;stroke-width:2.5;stroke-linecap:round;stroke-linejoin:round;stroke-miterlimit:4;stroke-dasharray:none;stroke-opacity:1"
         d="m 4913.23,3147.3 17.52,-52.79 -8.17,-10.08 -68.29,61.04 -3.49,4.03 -7.68,1.26 -7.56,14.02 -7.7,1.06 -4.34,7.42 -9.89,4.39 -6.1,7.48 -28.62,15.77 -31.25,23.88 -22.08,21.62 22.34,0.23 56.61,0.11 54.8,-54.28 3.43,-6.05 -0.94,-8.74 22.28,-18.06 17.3,1.96 3.74,-7.4 5.26,0.74 z" /><path
         id="path44"
         style="fill:#818283;fill-opacity:1;fill-rule:evenodd;stroke:none"
         d="m 4725.95,3156.1 -14.12,-10.74 -14.88,0.14 -13.71,-8.73 -29.74,26.79 -49.89,14.34 -6.57,3.9 -3.44,7.36 2.68,16.71 12.63,19.07 -5.31,20.99 h 0.84 l 121.14,0.47 22.08,-21.62 -1.4,-21.72 14.25,-32.96 -34.56,-14" /><path
         id="path46"
         style="fill:none;stroke:#fbfcfc;stroke-width:2.5;stroke-linecap:round;stroke-linejoin:round;stroke-miterlimit:4;stroke-dasharray:none;stroke-opacity:1"
         d="m 4725.95,3156.1 -14.12,-10.74 -14.88,0.14 -13.71,-8.73 -29.74,26.79 -49.89,14.34 -6.57,3.9 -3.44,7.36 2.68,16.71 12.63,19.07 -5.31,20.99 h 0.84 l 121.14,0.47 22.08,-21.62 -1.4,-21.72 14.25,-32.96 z" /><path
         id="path48"
         style="fill:#818283;fill-opacity:1;fill-rule:evenodd;stroke:none"
         d="m 4135.13,3122.29 8.74,13.37 -12.97,106.64 91.21,2.92 51.7,0.2 -0.79,-18.13 -5.32,-3.89 -4.47,-62.08 -7.43,-30.13 -18.34,-35.78 -17.61,6.45 -17.35,0.92 -8.49,9.67 -58.88,9.84" /><path
         id="path50"
         style="fill:none;stroke:#fbfcfc;stroke-width:2.5;stroke-linecap:round;stroke-linejoin:round;stroke-miterlimit:4;stroke-dasharray:none;stroke-opacity:1"
         d="m 4135.13,3122.29 8.74,13.37 -12.97,106.64 91.21,2.92 51.7,0.2 -0.79,-18.13 -5.32,-3.89 -4.47,-62.08 -7.43,-30.13 -18.34,-35.78 -17.61,6.45 -17.35,0.92 -8.49,9.67 z" /><path
         id="path52"
         style="fill:#818283;fill-opacity:1;fill-rule:evenodd;stroke:none"
         d="m 3554.24,3118.17 -144.59,2.88 5.99,123.57 131.01,-1.65 8.13,-0.89 -0.54,-123.91" /><path
         id="path54"
         style="fill:none;stroke:#fbfcfc;stroke-width:2.5;stroke-linecap:round;stroke-linejoin:round;stroke-miterlimit:4;stroke-dasharray:none;stroke-opacity:1"
         d="m 3554.24,3118.17 -144.59,2.88 5.99,123.57 131.01,-1.65 8.13,-0.89 z" /><path
         id="path56"
         style="fill:#818283;fill-opacity:1;fill-rule:evenodd;stroke:none"
         d="m 3721.77,3116.45 6.84,126.74 99.21,0.9 24.61,-1.57 -5.06,-131.29 -33.57,0.84 -92.03,4.38" /><path
         id="path58"
         style="fill:none;stroke:#fbfcfc;stroke-width:2.5;stroke-linecap:round;stroke-linejoin:round;stroke-miterlimit:4;stroke-dasharray:none;stroke-opacity:1"
         d="m 3721.77,3116.45 6.84,126.74 99.21,0.9 24.61,-1.57 -5.06,-131.29 -33.57,0.84 z" /><path
         id="path60"
         style="fill:#818283;fill-opacity:1;fill-rule:evenodd;stroke:none"
         d="m 3721.77,3116.45 -0.02,-4.18 -167.51,5.9 0.54,123.91 103.74,1.21 70.09,-0.1 -6.84,-126.74" /><path
         id="path62"
         style="fill:none;stroke:#fbfcfc;stroke-width:2.5;stroke-linecap:round;stroke-linejoin:round;stroke-miterlimit:4;stroke-dasharray:none;stroke-opacity:1"
         d="m 3721.77,3116.45 -0.02,-4.18 -167.51,5.9 0.54,123.91 103.74,1.21 70.09,-0.1 z" /><path
         id="path64"
         style="fill:#818283;fill-opacity:1;fill-rule:evenodd;stroke:none"
         d="m 3986.14,3039.97 -13.29,-0.59 -5.29,7.85 -2.14,14.08 1.21,49.04 3.41,131.11 20.07,1.07 94.25,-1.94 -1.67,-7.42 -13.11,-8.19 -4.94,-18.06 0.81,-120.19 7.51,-0.69 -18.05,-44.19 -0.73,-22.57 -49.92,21.97 -18.12,-1.28" /><path
         id="path66"
         style="fill:none;stroke:#fbfcfc;stroke-width:2.5;stroke-linecap:round;stroke-linejoin:round;stroke-miterlimit:4;stroke-dasharray:none;stroke-opacity:1"
         d="m 3986.14,3039.97 -13.29,-0.59 -5.29,7.85 -2.14,14.08 1.21,49.04 3.41,131.11 20.07,1.07 94.25,-1.94 -1.67,-7.42 -13.11,-8.19 -4.94,-18.06 0.81,-120.19 7.51,-0.69 -18.05,-44.19 -0.73,-22.57 -49.92,21.97 z" /><path
         id="path68"
         style="fill:#818283;fill-opacity:1;fill-rule:evenodd;stroke:none"
         d="m 3966.63,3110.35 -48.82,0.95 -70.44,-0.07 5.06,131.29 117.61,-1.06 -3.41,-131.11" /><path
         id="path70"
         style="fill:none;stroke:#fbfcfc;stroke-width:2.5;stroke-linecap:round;stroke-linejoin:round;stroke-miterlimit:4;stroke-dasharray:none;stroke-opacity:1"
         d="m 3966.63,3110.35 -48.82,0.95 -70.44,-0.07 5.06,131.29 117.61,-1.06 z" /><path
         id="path72"
         style="fill:#818283;fill-opacity:1;fill-rule:evenodd;stroke:none"
         d="m 4072.96,3086.04 -7.51,0.69 -0.81,120.19 4.94,18.06 13.11,8.19 1.67,7.42 46.54,1.71 12.97,-106.64 -8.74,-13.37 -12.61,-14.62 -11.78,-0.18 -12.21,-26.23 -25.57,4.78" /><path
         id="path74"
         style="fill:none;stroke:#fbfcfc;stroke-width:2.5;stroke-linecap:round;stroke-linejoin:round;stroke-miterlimit:4;stroke-dasharray:none;stroke-opacity:1"
         d="m 4072.96,3086.04 -7.51,0.69 -0.81,120.19 4.94,18.06 13.11,8.19 1.67,7.42 46.54,1.71 12.97,-106.64 -8.74,-13.37 -12.61,-14.62 -11.78,-0.18 -12.21,-26.23 z" /><path
         id="path76"
         style="fill:#818283;fill-opacity:1;fill-rule:evenodd;stroke:none"
         d="m 4465.53,3041.81 -24.73,-30.65 -6.91,0.56 -4.23,7.52 -8.71,5.16 -20.69,3.77 -3.63,8.45 -0.28,11.21 -3.79,2.57 -19.75,3.72 -12.21,12.28 -14.64,8.33 -5.04,-1.02 -6.66,-4.21 -9.12,5.16 -18.34,-0.91 -3.36,-3.53 -25.56,3.61 -10.49,5.17 -1.54,8.78 -5.7,4.11 -5.62,-1.59 -5.93,2.22 -3.97,-4.86 -7.17,7.75 18.34,35.78 7.43,30.13 4.47,62.08 5.32,3.89 51.36,-15.28 17.09,2.27 16.21,-2.68 5.08,-13.48 25.56,-14.37 0.25,-12.79 -6.9,-20.02 2.75,-5.79 4.91,-4.31 6.55,-0.74 28.41,7.26 11.93,-15.93 1.82,-10.91 11.79,-6.59 -3.52,-15.51 18.28,-8.49 8.63,-8.42 5.4,0.04 7.82,-3.08 4.9,-10.4 -0.53,-5.12 5.57,-7.19 -23.29,-5.8 -7.56,-8.15" /><path
         id="path78"
         style="fill:none;stroke:#fbfcfc;stroke-width:2.5;stroke-linecap:round;stroke-linejoin:round;stroke-miterlimit:4;stroke-dasharray:none;stroke-opacity:1"
         d="m 4465.53,3041.81 -24.73,-30.65 -6.91,0.56 -4.23,7.52 -8.71,5.16 -20.69,3.77 -3.63,8.45 -0.28,11.21 -3.79,2.57 -19.75,3.72 -12.21,12.28 -14.64,8.33 -5.04,-1.02 -6.66,-4.21 -9.12,5.16 -18.34,-0.91 -3.36,-3.53 -25.56,3.61 -10.49,5.17 -1.54,8.78 -5.7,4.11 -5.62,-1.59 -5.93,2.22 -3.97,-4.86 -7.17,7.75 18.34,35.78 7.43,30.13 4.47,62.08 5.32,3.89 51.36,-15.28 17.09,2.27 16.21,-2.68 5.08,-13.48 25.56,-14.37 0.25,-12.79 -6.9,-20.02 2.75,-5.79 4.91,-4.31 6.55,-0.74 28.41,7.26 11.93,-15.93 1.82,-10.91 11.79,-6.59 -3.52,-15.51 18.28,-8.49 8.63,-8.42 5.4,0.04 7.82,-3.08 4.9,-10.4 -0.53,-5.12 5.57,-7.19 -23.29,-5.8 z" /><path
         id="path80"
         style="fill:#818283;fill-opacity:1;fill-rule:evenodd;stroke:none"
         d="m 4815.13,3103.08 -8.56,8.14 -16.31,7.85 -29.75,51.03 -14.25,32.96 1.4,21.72 31.25,-23.88 28.62,-15.77 6.1,-7.48 9.89,-4.39 4.34,-7.42 7.7,-1.06 7.56,-14.02 7.68,-1.26 3.49,-4.03 -12.09,-7.83 35.93,-51.25 -9.89,-11.2 -31.48,6.57 -21.63,21.32" /><path
         id="path82"
         style="fill:none;stroke:#fbfcfc;stroke-width:2.5;stroke-linecap:round;stroke-linejoin:round;stroke-miterlimit:4;stroke-dasharray:none;stroke-opacity:1"
         d="m 4815.13,3103.08 -8.56,8.14 -16.31,7.85 -29.75,51.03 -14.25,32.96 1.4,21.72 31.25,-23.88 28.62,-15.77 6.1,-7.48 9.89,-4.39 4.34,-7.42 7.7,-1.06 7.56,-14.02 7.68,-1.26 3.49,-4.03 -12.09,-7.83 35.93,-51.25 -9.89,-11.2 -31.48,6.57 z" /><path
         id="path84"
         style="fill:#818283;fill-opacity:1;fill-rule:evenodd;stroke:none"
         d="m 3217.63,3027.97 -21.49,-5.92 -13.53,4.4 -11.3,-4.32 -26.58,1.19 -29.04,-14.42 -8.63,10.88 -13.99,9.29 -3.19,7.74 -10.66,4.02 -8.39,7.28 -21.27,5.18 -9.74,6.69 15.82,10.32 16.42,22.87 -7.43,18.34 6.72,2.19 7.4,8.87 6.33,2.76 2.01,7.45 13.17,-2.67 4.51,8.83 -3.91,16.51 1.46,5.93 10.95,4.35 21.91,-4.66 8.24,5.44 21.39,21.05 7.89,3.9 5.06,-2.99 3.05,3.66 5.44,-1.46 4.99,3.49 4.84,-0.52 14.02,-8.23 6.15,-13.66 7.39,-4.69 6.75,2.17 1.66,8.21 7.29,5.22 10.77,-13.05 12.06,-7.7 6.11,-12.51 -1.19,-38.08 -1.03,-76.04 -37.74,0.4 -10.69,-7.71" /><path
         id="path86"
         style="fill:none;stroke:#fbfcfc;stroke-width:2.5;stroke-linecap:round;stroke-linejoin:round;stroke-miterlimit:4;stroke-dasharray:none;stroke-opacity:1"
         d="m 3217.63,3027.97 -21.49,-5.92 -13.53,4.4 -11.3,-4.32 -26.58,1.19 -29.04,-14.42 -8.63,10.88 -13.99,9.29 -3.19,7.74 -10.66,4.02 -8.39,7.28 -21.27,5.18 -9.74,6.69 15.82,10.32 16.42,22.87 -7.43,18.34 6.72,2.19 7.4,8.87 6.33,2.76 2.01,7.45 13.17,-2.67 4.51,8.83 -3.91,16.51 1.46,5.93 10.95,4.35 21.91,-4.66 8.24,5.44 21.39,21.05 7.89,3.9 5.06,-2.99 3.05,3.66 5.44,-1.46 4.99,3.49 4.84,-0.52 14.02,-8.23 6.15,-13.66 7.39,-4.69 6.75,2.17 1.66,8.21 7.29,5.22 10.77,-13.05 12.06,-7.7 6.11,-12.51 -1.19,-38.08 -1.03,-76.04 -37.74,0.4 z" /><path
         id="path88"
         style="fill:#818283;fill-opacity:1;fill-rule:evenodd;stroke:none"
         d="m 2951.81,3057.11 -3.7,2.02 -1.75,20.31 -9.45,9.9 -11.82,3 -4.52,4.28 -2.71,9.65 4.25,18.93 -5.81,9.97 27.27,18.44 33.86,-2.24 7.12,1.85 -10.47,11.81 -0.23,12.58 36.54,-21.47 24.05,-28.17 7.16,-0.45 23.03,-16.01 7.43,-18.34 -16.42,-22.87 -15.82,-10.32 -38.2,2.59 -49.81,-5.46" /><path
         id="path90"
         style="fill:none;stroke:#fbfcfc;stroke-width:2.5;stroke-linecap:round;stroke-linejoin:round;stroke-miterlimit:4;stroke-dasharray:none;stroke-opacity:1"
         d="m 2951.81,3057.11 -3.7,2.02 -1.75,20.31 -9.45,9.9 -11.82,3 -4.52,4.28 -2.71,9.65 4.25,18.93 -5.81,9.97 27.27,18.44 33.86,-2.24 7.12,1.85 -10.47,11.81 -0.23,12.58 36.54,-21.47 24.05,-28.17 7.16,-0.45 23.03,-16.01 7.43,-18.34 -16.42,-22.87 -15.82,-10.32 -38.2,2.59 z" /><path
         id="path92"
         style="fill:#818283;fill-opacity:1;fill-rule:evenodd;stroke:none"
         d="m 4753.69,3046.76 -19.1,3.4 -13.07,6.17 -6.39,57.48 7.92,15.91 2.9,26.38 34.56,14 29.75,-51.03 16.31,-7.85 8.56,-8.14 7.92,-43.52 -69.36,-12.8" /><path
         id="path94"
         style="fill:none;stroke:#fbfcfc;stroke-width:2.5;stroke-linecap:round;stroke-linejoin:round;stroke-miterlimit:4;stroke-dasharray:none;stroke-opacity:1"
         d="m 4753.69,3046.76 -19.1,3.4 -13.07,6.17 -6.39,57.48 7.92,15.91 2.9,26.38 34.56,14 29.75,-51.03 16.31,-7.85 8.56,-8.14 7.92,-43.52 z" /><path
         id="path96"
         style="fill:#818283;fill-opacity:1;fill-rule:evenodd;stroke:none"
         d="m 4683.24,3136.77 13.71,8.73 14.88,-0.14 14.12,10.74 -2.9,-26.38 -7.92,-15.91 6.39,-57.48 13.07,-6.17 19.1,-3.4 20.33,-8.87 -34.71,-21.52 -24.02,1.24 -18.61,23.25 5.35,-11.96 -19.27,5.22 -12.3,44.9 12.78,57.75" /><path
         id="path98"
         style="fill:none;stroke:#fbfcfc;stroke-width:2.5;stroke-linecap:round;stroke-linejoin:round;stroke-miterlimit:4;stroke-dasharray:none;stroke-opacity:1"
         d="m 4683.24,3136.77 13.71,8.73 14.88,-0.14 14.12,10.74 -2.9,-26.38 -7.92,-15.91 6.39,-57.48 13.07,-6.17 19.1,-3.4 20.33,-8.87 -34.71,-21.52 -24.02,1.24 -18.61,23.25 5.35,-11.96 -19.27,5.22 -12.3,44.9 z" /><path
         id="path100"
         style="fill:#818283;fill-opacity:1;fill-rule:evenodd;stroke:none"
         d="m 3395.26,3031.46 -65.65,0.93 -63.55,2.89 1.03,76.04 31.02,6.16 5.55,5.56 4.64,-1.48 6.16,2.71 3.49,-2.64 9.27,0.26 9.88,-5.45 14.6,11.33 11.4,-2.02 12.33,4.26 3.09,-0.75 2.76,-8.36 20.46,-0.84 6.78,-5.1 5.26,-9.68 -1.35,-40.31 -15.96,-6.54 -4.4,-5.34 -1.11,-10.07 4.3,-11.56" /><path
         id="path102"
         style="fill:none;stroke:#fbfcfc;stroke-width:2.5;stroke-linecap:round;stroke-linejoin:round;stroke-miterlimit:4;stroke-dasharray:none;stroke-opacity:1"
         d="m 3395.26,3031.46 -65.65,0.93 -63.55,2.89 1.03,76.04 31.02,6.16 5.55,5.56 4.64,-1.48 6.16,2.71 3.49,-2.64 9.27,0.26 9.88,-5.45 14.6,11.33 11.4,-2.02 12.33,4.26 3.09,-0.75 2.76,-8.36 20.46,-0.84 6.78,-5.1 5.26,-9.68 -1.35,-40.31 -15.96,-6.54 -4.4,-5.34 -1.11,-10.07 z" /><path
         id="path104"
         style="fill:#818283;fill-opacity:1;fill-rule:evenodd;stroke:none"
         d="m 4153.47,2936.31 -4.16,13.71 -14.06,18.82 -7.16,-2.34 -10.34,12.88 -11.62,5.69 -12.41,16.89 -39.54,17.32 0.73,22.57 18.05,44.19 25.57,-4.78 12.21,26.23 11.78,0.18 12.61,14.62 58.88,-9.84 8.49,-9.67 17.35,-0.92 17.61,-6.45 -42.16,-73.06 -41.83,-86.04" /><path
         id="path106"
         style="fill:none;stroke:#fbfcfc;stroke-width:2.5;stroke-linecap:round;stroke-linejoin:round;stroke-miterlimit:4;stroke-dasharray:none;stroke-opacity:1"
         d="m 4153.47,2936.31 -4.16,13.71 -14.06,18.82 -7.16,-2.34 -10.34,12.88 -11.62,5.69 -12.41,16.89 -39.54,17.32 0.73,22.57 18.05,44.19 25.57,-4.78 12.21,26.23 11.78,0.18 12.61,14.62 58.88,-9.84 8.49,-9.67 17.35,-0.92 17.61,-6.45 -42.16,-73.06 z" /><path
         id="path108"
         style="fill:#818283;fill-opacity:1;fill-rule:evenodd;stroke:none"
         d="m 3550.03,3015.95 -28.1,6.43 -30.02,-0.06 -0.74,-13.09 -41.36,1.02 1.37,-4.73 -16.91,-5.57 -10.6,6.98 -2.16,10.04 -10.82,8.87 -5.05,8.52 -6.52,-4.97 -3.86,2.07 -4.3,11.56 1.11,10.07 4.4,5.34 15.96,6.54 1.35,40.31 -5.26,9.68 1.13,6.09 144.59,-2.88 -4.21,-102.22" /><path
         id="path110"
         style="fill:none;stroke:#fbfcfc;stroke-width:2.5;stroke-linecap:round;stroke-linejoin:round;stroke-miterlimit:4;stroke-dasharray:none;stroke-opacity:1"
         d="m 3550.03,3015.95 -28.1,6.43 -30.02,-0.06 -0.74,-13.09 -41.36,1.02 1.37,-4.73 -16.91,-5.57 -10.6,6.98 -2.16,10.04 -10.82,8.87 -5.05,8.52 -6.52,-4.97 -3.86,2.07 -4.3,11.56 1.11,10.07 4.4,5.34 15.96,6.54 1.35,40.31 -5.26,9.68 1.13,6.09 144.59,-2.88 z" /><path
         id="path112"
         style="fill:#818283;fill-opacity:1;fill-rule:evenodd;stroke:none"
         d="m 3719.3,2967.8 -170.79,10.79 1.52,37.36 4.21,102.22 167.51,-5.9 -2.45,-144.47" /><path
         id="path114"
         style="fill:none;stroke:#fbfcfc;stroke-width:2.5;stroke-linecap:round;stroke-linejoin:round;stroke-miterlimit:4;stroke-dasharray:none;stroke-opacity:1"
         d="m 3719.3,2967.8 -170.79,10.79 1.52,37.36 4.21,102.22 167.51,-5.9 z" /><path
         id="path116"
         style="fill:#818283;fill-opacity:1;fill-rule:evenodd;stroke:none"
         d="m 3817.96,2958.27 2.78,-12.9 -102.51,-0.11 1.07,22.54 2.45,144.47 0.02,4.18 92.03,-4.38 -0.43,-78.67 -3.74,-59.91 8.33,-15.22" /><path
         id="path118"
         style="fill:none;stroke:#fbfcfc;stroke-width:2.5;stroke-linecap:round;stroke-linejoin:round;stroke-miterlimit:4;stroke-dasharray:none;stroke-opacity:1"
         d="m 3817.96,2958.27 2.78,-12.9 -102.51,-0.11 1.07,22.54 2.45,144.47 0.02,4.18 92.03,-4.38 -0.43,-78.67 -3.74,-59.91 z" /><path
         id="path120"
         style="fill:#818283;fill-opacity:1;fill-rule:evenodd;stroke:none"
         d="m 4651.33,2954.56 -9.3,9.21 -8.22,1.22 -7.4,-20.22 -7.36,-7.72 -6.77,-1.29 -2.14,22.42 -10.59,11.14 -18.48,-7 -4.64,-6.68 -14.85,-1.81 4.79,23.74 -2.27,7.27 -8.6,1.78 -8.02,-4.5 -33.39,2.51 -2.44,1.97 0.85,21.79 -7.5,0.41 0.59,6.81 -21.28,9.35 -13.04,8.52 -5.74,8.33 7.56,8.15 23.29,5.8 -5.57,7.19 0.53,5.12 -4.9,10.4 -7.82,3.08 -1.72,20.4 21.65,1.29 5.74,11.06 29.63,-3.15 45.79,0.89 4.75,-2.25 79.72,1.55 -5.28,-37.45 22.64,-63.46 -16.02,-23.55 14.85,2.05 -3.75,-9.07 -6.86,-3.75 -4.44,-11.6 -6.61,-7.74 -7.38,-2.21" /><path
         id="path122"
         style="fill:none;stroke:#fbfcfc;stroke-width:2.5;stroke-linecap:round;stroke-linejoin:round;stroke-miterlimit:4;stroke-dasharray:none;stroke-opacity:1"
         d="m 4651.33,2954.56 -9.3,9.21 -8.22,1.22 -7.4,-20.22 -7.36,-7.72 -6.77,-1.29 -2.14,22.42 -10.59,11.14 -18.48,-7 -4.64,-6.68 -14.85,-1.81 4.79,23.74 -2.27,7.27 -8.6,1.78 -8.02,-4.5 -33.39,2.51 -2.44,1.97 0.85,21.79 -7.5,0.41 0.59,6.81 -21.28,9.35 -13.04,8.52 -5.74,8.33 7.56,8.15 23.29,5.8 -5.57,7.19 0.53,5.12 -4.9,10.4 -7.82,3.08 -1.72,20.4 21.65,1.29 5.74,11.06 29.63,-3.15 45.79,0.89 4.75,-2.25 79.72,1.55 -5.28,-37.45 22.64,-63.46 -16.02,-23.55 14.85,2.05 -3.75,-9.07 -6.86,-3.75 -4.44,-11.6 -6.61,-7.74 z" /><path
         id="path124"
         style="fill:#818283;fill-opacity:1;fill-rule:evenodd;stroke:none"
         d="m 3895.12,2953.98 -26.13,-1.64 -51.03,5.93 -8.33,15.22 3.74,59.91 0.43,78.67 33.57,-0.84 70.44,0.07 -22.69,-157.32" /><path
         id="path126"
         style="fill:none;stroke:#fbfcfc;stroke-width:2.5;stroke-linecap:round;stroke-linejoin:round;stroke-miterlimit:4;stroke-dasharray:none;stroke-opacity:1"
         d="m 3895.12,2953.98 -26.13,-1.64 -51.03,5.93 -8.33,15.22 3.74,59.91 0.43,78.67 33.57,-0.84 70.44,0.07 z" /><path
         id="path128"
         style="fill:#818283;fill-opacity:1;fill-rule:evenodd;stroke:none"
         d="m 3895.12,2953.98 22.69,157.32 48.82,-0.95 -1.21,-49.04 2.14,-14.08 5.29,-7.85 13.29,0.59 -1.45,-21.81 8.56,6.53 4.04,-0.24 4.06,-12.2 -1.08,-8.52 -9.08,-17.71 -9.92,-8.4 -15.15,2.28 -6.65,-24.93 -26.31,0.12 -38.04,-1.11" /><path
         id="path130"
         style="fill:none;stroke:#fbfcfc;stroke-width:2.5;stroke-linecap:round;stroke-linejoin:round;stroke-miterlimit:4;stroke-dasharray:none;stroke-opacity:1"
         d="m 3895.12,2953.98 22.69,157.32 48.82,-0.95 -1.21,-49.04 2.14,-14.08 5.29,-7.85 13.29,0.59 -1.45,-21.81 8.56,6.53 4.04,-0.24 4.06,-12.2 -1.08,-8.52 -9.08,-17.71 -9.92,-8.4 -15.15,2.28 -6.65,-24.93 -26.31,0.12 z" /><path
         id="path132"
         style="fill:#818283;fill-opacity:1;fill-rule:evenodd;stroke:none"
         d="m 4176.35,2898.61 -6.33,0.12 -2,5.34 -7.61,3.16 -6.94,29.08 41.83,86.04 42.16,73.06 7.17,-7.75 3.97,4.86 5.93,-2.22 5.62,1.59 5.7,-4.11 1.54,-8.78 10.49,-5.17 25.56,-3.61 3.36,3.53 18.34,0.91 9.12,-5.16 6.66,4.21 -43.86,-121.13 -5,-7.9 -9.51,3.81 -106.2,-49.88" /><path
         id="path134"
         style="fill:none;stroke:#fbfcfc;stroke-width:2.5;stroke-linecap:round;stroke-linejoin:round;stroke-miterlimit:4;stroke-dasharray:none;stroke-opacity:1"
         d="m 4176.35,2898.61 -6.33,0.12 -2,5.34 -7.61,3.16 -6.94,29.08 41.83,86.04 42.16,73.06 7.17,-7.75 3.97,4.86 5.93,-2.22 5.62,1.59 5.7,-4.11 1.54,-8.78 10.49,-5.17 25.56,-3.61 3.36,3.53 18.34,0.91 9.12,-5.16 6.66,4.21 -43.86,-121.13 -5,-7.9 -9.51,3.81 z" /><path
         id="path136"
         style="fill:#818283;fill-opacity:1;fill-rule:evenodd;stroke:none"
         d="m 4350.83,2875.76 -20.95,28.87 -8.24,24.42 0.84,11.15 -4.1,5.02 -21.32,7.36 43.86,121.13 5.04,1.02 14.64,-8.33 12.21,-12.28 19.75,-3.72 3.79,-2.57 0.28,-11.21 3.63,-8.45 20.69,-3.77 8.71,-5.16 4.23,-7.52 6.91,-0.56 21.3,-36.24 -5.33,-38.7 -13.09,5.47 -3.01,-4.65 -4.36,2.01 -2.85,-5.79 -9.38,-6 -6.26,2.44 -10.92,-13.73 -56.07,-40.21" /><path
         id="path138"
         style="fill:none;stroke:#fbfcfc;stroke-width:2.5;stroke-linecap:round;stroke-linejoin:round;stroke-miterlimit:4;stroke-dasharray:none;stroke-opacity:1"
         d="m 4350.83,2875.76 -20.95,28.87 -8.24,24.42 0.84,11.15 -4.1,5.02 -21.32,7.36 43.86,121.13 5.04,1.02 14.64,-8.33 12.21,-12.28 19.75,-3.72 3.79,-2.57 0.28,-11.21 3.63,-8.45 20.69,-3.77 8.71,-5.16 4.23,-7.52 6.91,-0.56 21.3,-36.24 -5.33,-38.7 -13.09,5.47 -3.01,-4.65 -4.36,2.01 -2.85,-5.79 -9.38,-6 -6.26,2.44 -10.92,-13.73 z" /><path
         id="path140"
         style="fill:#818283;fill-opacity:1;fill-rule:evenodd;stroke:none"
         d="m 3113.57,2927.77 -16.42,-18.78 -13.84,2.45 -13.39,10.02 -34.89,-1.87 -11.2,15.71 -36.7,23.24 -15.77,21.7 -8.47,0.6 -0.75,9.09 -9.17,6.84 23.86,41.05 -25.02,19.29 49.81,5.46 38.2,-2.59 9.74,-6.69 21.27,-5.18 8.39,-7.28 10.66,-4.02 3.19,-7.74 13.99,-9.29 8.63,-10.88 -2.51,-0.04 -3.48,-25.08 3.01,-22.32 -2.22,-20.11 3.08,-13.58" /><path
         id="path142"
         style="fill:none;stroke:#fbfcfc;stroke-width:2.5;stroke-linecap:round;stroke-linejoin:round;stroke-miterlimit:4;stroke-dasharray:none;stroke-opacity:1"
         d="m 3113.57,2927.77 -16.42,-18.78 -13.84,2.45 -13.39,10.02 -34.89,-1.87 -11.2,15.71 -36.7,23.24 -15.77,21.7 -8.47,0.6 -0.75,9.09 -9.17,6.84 23.86,41.05 -25.02,19.29 49.81,5.46 38.2,-2.59 9.74,-6.69 21.27,-5.18 8.39,-7.28 10.66,-4.02 3.19,-7.74 13.99,-9.29 8.63,-10.88 -2.51,-0.04 -3.48,-25.08 3.01,-22.32 -2.22,-20.11 z" /><path
         id="path144"
         style="fill:#818283;fill-opacity:1;fill-rule:evenodd;stroke:none"
         d="m 4517.55,2901.56 -9.88,9.57 -17.98,1.65 -1.25,9.88 -31.67,13.56 5.33,38.7 -21.3,36.24 24.73,30.65 5.74,-8.33 13.04,-8.52 21.28,-9.35 -0.59,-6.81 7.5,-0.41 -0.85,-21.79 2.44,-1.97 33.39,-2.51 8.02,4.5 8.6,-1.78 2.27,-7.27 -4.79,-23.74 14.85,1.81 4.64,6.68 18.48,7 10.59,-11.14 2.14,-22.42 6.77,1.29 7.36,7.72 7.4,20.22 8.22,-1.22 9.3,-9.21 -7.99,-20.2 0.47,-8.54 -6.99,-13.96 -4.18,-21.44 -47.91,-23.04 -61.37,36.1 -5.81,-1.92" /><path
         id="path146"
         style="fill:none;stroke:#fbfcfc;stroke-width:2.5;stroke-linecap:round;stroke-linejoin:round;stroke-miterlimit:4;stroke-dasharray:none;stroke-opacity:1"
         d="m 4517.55,2901.56 -9.88,9.57 -17.98,1.65 -1.25,9.88 -31.67,13.56 5.33,38.7 -21.3,36.24 24.73,30.65 5.74,-8.33 13.04,-8.52 21.28,-9.35 -0.59,-6.81 7.5,-0.41 -0.85,-21.79 2.44,-1.97 33.39,-2.51 8.02,4.5 8.6,-1.78 2.27,-7.27 -4.79,-23.74 14.85,1.81 4.64,6.68 18.48,7 10.59,-11.14 2.14,-22.42 6.77,1.29 7.36,7.72 7.4,20.22 8.22,-1.22 9.3,-9.21 -7.99,-20.2 0.47,-8.54 -6.99,-13.96 -4.18,-21.44 -47.91,-23.04 -61.37,36.1 z" /><path
         id="path148"
         style="fill:#818283;fill-opacity:1;fill-rule:evenodd;stroke:none"
         d="m 3927.96,2837.72 -26.3,9.34 20.28,66.7 -1.88,3.61 13.1,37.72 26.31,-0.12 6.65,24.93 15.15,-2.28 9.92,8.4 9.08,17.71 1.08,8.52 -4.06,12.2 -4.04,0.24 -8.56,-6.53 1.45,21.81 18.12,1.28 49.92,-21.97 39.54,-17.32 12.41,-16.89 11.62,-5.69 10.34,-12.88 7.16,2.34 14.06,-18.82 4.16,-13.71 -75.48,-49.99 -76.32,-73.1 -73.71,24.5" /><path
         id="path150"
         style="fill:none;stroke:#fbfcfc;stroke-width:2.5;stroke-linecap:round;stroke-linejoin:round;stroke-miterlimit:4;stroke-dasharray:none;stroke-opacity:1"
         d="m 3927.96,2837.72 -26.3,9.34 20.28,66.7 -1.88,3.61 13.1,37.72 26.31,-0.12 6.65,24.93 15.15,-2.28 9.92,8.4 9.08,17.71 1.08,8.52 -4.06,12.2 -4.04,0.24 -8.56,-6.53 1.45,21.81 18.12,1.28 49.92,-21.97 39.54,-17.32 12.41,-16.89 11.62,-5.69 10.34,-12.88 7.16,2.34 14.06,-18.82 4.16,-13.71 -75.48,-49.99 -76.32,-73.1 z" /><path
         id="path152"
         style="fill:#818283;fill-opacity:1;fill-rule:evenodd;stroke:none"
         d="m 3317.12,2808.07 -16.83,-0.32 -60.6,0.96 1.45,8.13 -3.51,6.19 10.21,31.63 -24.47,32.25 -17.32,6.81 -5.9,12.61 -12.4,11.78 20.22,26.72 18.19,58.95 -8.53,24.19 10.69,7.71 37.74,-0.4 63.55,-2.89 -5.54,-81.01 -20.35,-70.72 13.4,-72.59" /><path
         id="path154"
         style="fill:none;stroke:#fbfcfc;stroke-width:2.5;stroke-linecap:round;stroke-linejoin:round;stroke-miterlimit:4;stroke-dasharray:none;stroke-opacity:1"
         d="m 3317.12,2808.07 -16.83,-0.32 -60.6,0.96 1.45,8.13 -3.51,6.19 10.21,31.63 -24.47,32.25 -17.32,6.81 -5.9,12.61 -12.4,11.78 20.22,26.72 18.19,58.95 -8.53,24.19 10.69,7.71 37.74,-0.4 63.55,-2.89 -5.54,-81.01 -20.35,-70.72 z" /><path
         id="path156"
         style="fill:#818283;fill-opacity:1;fill-rule:evenodd;stroke:none"
         d="m 3408.38,2907.23 -10.8,12.43 -12.87,2.58 -15.43,13.35 -11.92,3.52 -9.26,7.52 -24.03,4.75 5.54,81.01 65.65,-0.93 3.86,-2.07 6.52,4.97 5.05,-8.52 10.82,-8.87 2.16,-10.04 10.6,-6.98 5.81,-10.78 0.46,-19.33 -14.96,-4.8 6.57,-10.77 0.03,-5.49 -3.07,-2.48 -6.53,2.25 -3.81,-6.08 -6.91,0.16 -3.83,-3.42 -7.31,4.5 2.21,-19.67 7.52,-8.86 -2.07,-7.95" /><path
         id="path158"
         style="fill:none;stroke:#fbfcfc;stroke-width:2.5;stroke-linecap:round;stroke-linejoin:round;stroke-miterlimit:4;stroke-dasharray:none;stroke-opacity:1"
         d="m 3408.38,2907.23 -10.8,12.43 -12.87,2.58 -15.43,13.35 -11.92,3.52 -9.26,7.52 -24.03,4.75 5.54,81.01 65.65,-0.93 3.86,-2.07 6.52,4.97 5.05,-8.52 10.82,-8.87 2.16,-10.04 10.6,-6.98 5.81,-10.78 0.46,-19.33 -14.96,-4.8 6.57,-10.77 0.03,-5.49 -3.07,-2.48 -6.53,2.25 -3.81,-6.08 -6.91,0.16 -3.83,-3.42 -7.31,4.5 2.21,-19.67 7.52,-8.86 z" /><path
         id="path160"
         style="fill:#818283;fill-opacity:1;fill-rule:evenodd;stroke:none"
         d="m 3187.75,2918.11 -6.23,7.11 -4.78,14.34 -63.17,-11.79 -3.08,13.58 2.22,20.11 -3.01,22.32 3.48,25.08 2.51,0.04 29.04,14.42 26.58,-1.19 11.3,4.32 13.53,-4.4 21.49,5.92 8.53,-24.19 -18.19,-58.95 -20.22,-26.72" /><path
         id="path162"
         style="fill:none;stroke:#fbfcfc;stroke-width:2.5;stroke-linecap:round;stroke-linejoin:round;stroke-miterlimit:4;stroke-dasharray:none;stroke-opacity:1"
         d="m 3187.75,2918.11 -6.23,7.11 -4.78,14.34 -63.17,-11.79 -3.08,13.58 2.22,20.11 -3.01,22.32 3.48,25.08 2.51,0.04 29.04,14.42 26.58,-1.19 11.3,4.32 13.53,-4.4 21.49,5.92 8.53,-24.19 -18.19,-58.95 z" /><path
         id="path164"
         style="fill:#818283;fill-opacity:1;fill-rule:evenodd;stroke:none"
         d="m 3541.13,2807.29 -39.75,-0.24 -9.24,28.85 -14.22,20.93 -11.69,5.06 -13.47,19.23 -0.23,12.86 -17.25,-1.39 -26.9,14.64 2.07,7.95 -7.52,8.86 -2.21,19.67 7.31,-4.5 3.83,3.42 6.91,-0.16 3.81,6.08 6.53,-2.25 3.07,2.48 -0.03,5.49 -6.57,10.77 14.96,4.8 -0.46,19.33 -5.81,10.78 16.91,5.57 -1.37,4.73 41.36,-1.02 0.74,13.09 30.02,0.06 28.1,-6.43 -1.52,-37.36 -7.38,-171.3" /><path
         id="path166"
         style="fill:none;stroke:#fbfcfc;stroke-width:2.5;stroke-linecap:round;stroke-linejoin:round;stroke-miterlimit:4;stroke-dasharray:none;stroke-opacity:1"
         d="m 3541.13,2807.29 -39.75,-0.24 -9.24,28.85 -14.22,20.93 -11.69,5.06 -13.47,19.23 -0.23,12.86 -17.25,-1.39 -26.9,14.64 2.07,7.95 -7.52,8.86 -2.21,19.67 7.31,-4.5 3.83,3.42 6.91,-0.16 3.81,6.08 6.53,-2.25 3.07,2.48 -0.03,5.49 -6.57,10.77 14.96,4.8 -0.46,19.33 -5.81,10.78 16.91,5.57 -1.37,4.73 41.36,-1.02 0.74,13.09 30.02,0.06 28.1,-6.43 -1.52,-37.36 z" /><path
         id="path168"
         style="fill:#818283;fill-opacity:1;fill-rule:evenodd;stroke:none"
         d="m 2948.41,2835.84 -16.7,60.15 -40.59,33.81 3.49,7.65 14.31,3.89 9.04,8.51 0.01,18.38 -11.88,26.3 6.49,11.52 7.21,5.07 6.78,-2.14 7.09,-8.02 19.31,-4.19 9.17,-6.84 0.75,-9.09 8.47,-0.6 15.77,-21.7 36.7,-23.24 11.2,-15.71 34.89,1.87 13.39,-10.02 13.84,-2.45 -9.83,-21.89 -30.45,-37.87 -9.45,-18.84 -13.16,-2.48 -8.65,2.69 -18.88,-3.52 -13.67,5.04 -3.68,2.58 -1.91,9.98 -16.51,2.53 -5.41,-7.27 -17.14,-4.1" /><path
         id="path170"
         style="fill:none;stroke:#fbfcfc;stroke-width:2.5;stroke-linecap:round;stroke-linejoin:round;stroke-miterlimit:4;stroke-dasharray:none;stroke-opacity:1"
         d="m 2948.41,2835.84 -16.7,60.15 -40.59,33.81 3.49,7.65 14.31,3.89 9.04,8.51 0.01,18.38 -11.88,26.3 6.49,11.52 7.21,5.07 6.78,-2.14 7.09,-8.02 19.31,-4.19 9.17,-6.84 0.75,-9.09 8.47,-0.6 15.77,-21.7 36.7,-23.24 11.2,-15.71 34.89,1.87 13.39,-10.02 13.84,-2.45 -9.83,-21.89 -30.45,-37.87 -9.45,-18.84 -13.16,-2.48 -8.65,2.69 -18.88,-3.52 -13.67,5.04 -3.68,2.58 -1.91,9.98 -16.51,2.53 -5.41,-7.27 z" /><path
         id="path172"
         style="fill:#818283;fill-opacity:1;fill-rule:evenodd;stroke:none"
         d="m 4778.08,2887.78 -76.26,1.62 -69.18,1.02 4.18,21.44 6.99,13.96 -0.47,8.54 7.99,20.2 7.38,2.21 6.61,7.74 4.44,11.6 6.86,3.75 3.75,9.07 97.36,15.02 12.85,-18.86 -4.08,-13.34 8.58,-16.63 -17.09,-29.67 0.09,-37.67" /><path
         id="path174"
         style="fill:none;stroke:#fbfcfc;stroke-width:2.5;stroke-linecap:round;stroke-linejoin:round;stroke-miterlimit:4;stroke-dasharray:none;stroke-opacity:1"
         d="m 4778.08,2887.78 -76.26,1.62 -69.18,1.02 4.18,21.44 6.99,13.96 -0.47,8.54 7.99,20.2 7.38,2.21 6.61,7.74 4.44,11.6 6.86,3.75 3.75,9.07 97.36,15.02 12.85,-18.86 -4.08,-13.34 8.58,-16.63 -17.09,-29.67 z" /><path
         id="path176"
         style="fill:#818283;fill-opacity:1;fill-rule:evenodd;stroke:none"
         d="m 4859.66,2886.84 -14.52,-38.5 -7.63,-4.04 -21.94,7.08 8.18,32.4 -45.67,4 -0.09,37.67 17.09,29.67 -8.58,16.63 4.08,13.34 53.36,18.61 42,-5.83 21.52,-17.76 -16.87,-68.29 11.11,-30.4 -42.04,5.42" /><path
         id="path178"
         style="fill:none;stroke:#fbfcfc;stroke-width:2.5;stroke-linecap:round;stroke-linejoin:round;stroke-miterlimit:4;stroke-dasharray:none;stroke-opacity:1"
         d="m 4859.66,2886.84 -14.52,-38.5 -7.63,-4.04 -21.94,7.08 8.18,32.4 -45.67,4 -0.09,37.67 17.09,29.67 -8.58,16.63 4.08,13.34 53.36,18.61 42,-5.83 21.52,-17.76 -16.87,-68.29 11.11,-30.4 z" /><path
         id="path180"
         style="fill:#818283;fill-opacity:1;fill-rule:evenodd;stroke:none"
         d="m 3642.44,2807.39 -101.31,-0.1 7.38,171.3 170.79,-10.79 -1.07,-22.54 -4.87,-134.91 -70.92,-2.96" /><path
         id="path182"
         style="fill:none;stroke:#fbfcfc;stroke-width:2.5;stroke-linecap:round;stroke-linejoin:round;stroke-miterlimit:4;stroke-dasharray:none;stroke-opacity:1"
         d="m 3642.44,2807.39 -101.31,-0.1 7.38,171.3 170.79,-10.79 -1.07,-22.54 -4.87,-134.91 z" /><path
         id="path184"
         style="fill:#818283;fill-opacity:1;fill-rule:evenodd;stroke:none"
         d="m 3713.36,2810.35 4.87,134.91 102.51,0.11 -2.78,12.9 51.03,-5.93 26.13,1.64 38.04,1.11 -13.1,-37.72 1.88,-3.61 -20.28,-66.7 26.3,-9.34 -18.07,-25.66 -21.66,13.43 -9.74,20.48 -22.1,10.78 -20.85,-20.58 -5.24,-9.02 -3.65,-1.1 -2.24,6.05 -16.56,-14.59 -3.4,5.88 -6.51,-0.71 -3.26,-1.49 0.73,-5.1 -6.33,-2.03 -3.85,-4.88 -71.87,1.17" /><path
         id="path186"
         style="fill:none;stroke:#fbfcfc;stroke-width:2.5;stroke-linecap:round;stroke-linejoin:round;stroke-miterlimit:4;stroke-dasharray:none;stroke-opacity:1"
         d="m 3713.36,2810.35 4.87,134.91 102.51,0.11 -2.78,12.9 51.03,-5.93 26.13,1.64 38.04,1.11 -13.1,-37.72 1.88,-3.61 -20.28,-66.7 26.3,-9.34 -18.07,-25.66 -21.66,13.43 -9.74,20.48 -22.1,10.78 -20.85,-20.58 -5.24,-9.02 -3.65,-1.1 -2.24,6.05 -16.56,-14.59 -3.4,5.88 -6.51,-0.71 -3.26,-1.49 0.73,-5.1 -6.33,-2.03 -3.85,-4.88 z" /><path
         id="path188"
         style="fill:#818283;fill-opacity:1;fill-rule:evenodd;stroke:none"
         d="m 4217.49,2839.04 -20.16,6.44 -12.7,35.58 0.22,10.96 -8.5,6.59 106.2,49.88 9.51,-3.81 5,7.9 21.32,-7.36 4.1,-5.02 -0.84,-11.15 8.24,-24.42 20.95,-28.87 -9.17,-6.77 -43.29,-33.18 -0.3,3.59 -59.2,-2.87 -19.74,7.77 -1.64,-5.26" /><path
         id="path190"
         style="fill:none;stroke:#fbfcfc;stroke-width:2.5;stroke-linecap:round;stroke-linejoin:round;stroke-miterlimit:4;stroke-dasharray:none;stroke-opacity:1"
         d="m 4217.49,2839.04 -20.16,6.44 -12.7,35.58 0.22,10.96 -8.5,6.59 106.2,49.88 9.51,-3.81 5,7.9 21.32,-7.36 4.1,-5.02 -0.84,-11.15 8.24,-24.42 20.95,-28.87 -9.17,-6.77 -43.29,-33.18 -0.3,3.59 -59.2,-2.87 -19.74,7.77 z" /><path
         id="path192"
         style="fill:#818283;fill-opacity:1;fill-rule:evenodd;stroke:none"
         d="m 3462.02,2802.8 -144.9,5.27 -13.4,72.59 20.35,70.72 24.03,-4.75 9.26,-7.52 11.92,-3.52 15.43,-13.35 12.87,-2.58 10.8,-12.43 26.9,-14.64 17.25,1.39 0.23,-12.86 13.47,-19.23 11.69,-5.06 14.22,-20.93 9.24,-28.85 -39.36,-4.25" /><path
         id="path194"
         style="fill:none;stroke:#fbfcfc;stroke-width:2.5;stroke-linecap:round;stroke-linejoin:round;stroke-miterlimit:4;stroke-dasharray:none;stroke-opacity:1"
         d="m 3462.02,2802.8 -144.9,5.27 -13.4,72.59 20.35,70.72 24.03,-4.75 9.26,-7.52 11.92,-3.52 15.43,-13.35 12.87,-2.58 10.8,-12.43 26.9,-14.64 17.25,1.39 0.23,-12.86 13.47,-19.23 11.69,-5.06 14.22,-20.93 9.24,-28.85 z" /><path
         id="path196"
         style="fill:#818283;fill-opacity:1;fill-rule:evenodd;stroke:none"
         d="m 4417.6,2772.34 -10.38,26.29 0.21,7.92 -5.79,5.24 -0.8,5.69 -8.85,-1.85 -5.1,2.58 -23.51,23.24 -21.72,27.54 9.17,6.77 56.07,40.21 10.92,13.73 6.26,-2.44 9.38,6 2.85,5.79 4.36,-2.01 3.01,4.65 13.09,-5.47 31.67,-13.56 1.25,-9.88 17.98,-1.65 9.88,-9.57 0.35,-7.38 -5.01,-0.99 -1.11,-5.08 6.79,-9.84 -3.98,-4.99 4.24,-12.03 7.66,-6.46 1.25,-9.1 9.8,-5.21 5.28,-14.68 -14.76,-1.08 -8.39,-11.84 -7.7,-39.95 -5.5,-11.34 -9.92,-6.5 -1.27,-10.7 -6.73,-1.69 -10.02,9.89 -20.44,-20.9 -10.81,2.36 -5.19,5.6 -14.36,4.91 -10.13,27.78" /><path
         id="path198"
         style="fill:none;stroke:#fbfcfc;stroke-width:2.5;stroke-linecap:round;stroke-linejoin:round;stroke-miterlimit:4;stroke-dasharray:none;stroke-opacity:1"
         d="m 4417.6,2772.34 -10.38,26.29 0.21,7.92 -5.79,5.24 -0.8,5.69 -8.85,-1.85 -5.1,2.58 -23.51,23.24 -21.72,27.54 9.17,6.77 56.07,40.21 10.92,13.73 6.26,-2.44 9.38,6 2.85,5.79 4.36,-2.01 3.01,4.65 13.09,-5.47 31.67,-13.56 1.25,-9.88 17.98,-1.65 9.88,-9.57 0.35,-7.38 -5.01,-0.99 -1.11,-5.08 6.79,-9.84 -3.98,-4.99 4.24,-12.03 7.66,-6.46 1.25,-9.1 9.8,-5.21 5.28,-14.68 -14.76,-1.08 -8.39,-11.84 -7.7,-39.95 -5.5,-11.34 -9.92,-6.5 -1.27,-10.7 -6.73,-1.69 -10.02,9.89 -20.44,-20.9 -10.81,2.36 -5.19,5.6 -14.36,4.91 z" /><path
         id="path200"
         style="fill:#818283;fill-opacity:1;fill-rule:evenodd;stroke:none"
         d="m 3237.63,2823.03 -190.21,7.36 9.45,18.84 30.45,37.87 9.83,21.89 16.42,18.78 63.17,11.79 4.78,-14.34 6.23,-7.11 12.4,-11.78 5.9,-12.61 17.32,-6.81 24.47,-32.25 -10.21,-31.63" /><path
         id="path202"
         style="fill:none;stroke:#fbfcfc;stroke-width:2.5;stroke-linecap:round;stroke-linejoin:round;stroke-miterlimit:4;stroke-dasharray:none;stroke-opacity:1"
         d="m 3237.63,2823.03 -190.21,7.36 9.45,18.84 30.45,37.87 9.83,21.89 16.42,18.78 63.17,11.79 4.78,-14.34 6.23,-7.11 12.4,-11.78 5.9,-12.61 17.32,-6.81 24.47,-32.25 z" /><path
         id="path204"
         style="fill:#818283;fill-opacity:1;fill-rule:evenodd;stroke:none"
         d="m 4057.32,2728.19 -0.25,8.85 -20.76,27.62 -7.56,18.01 -22.18,25.39 -6.85,2.73 1.95,2.43 76.32,73.1 75.48,49.99 6.94,-29.08 7.61,-3.16 2,-5.34 6.33,-0.12 8.5,-6.59 -0.22,-10.96 12.7,-35.58 20.16,-6.44 -27.29,-63.6 -3.69,-32.52 -6.96,-4.58 -10.68,-0.18 -9.54,-10.17 -10.47,1.13 -14.2,-15.37 -36.05,-12.93 -26.03,4.37 -15.26,23" /><path
         id="path206"
         style="fill:none;stroke:#fbfcfc;stroke-width:2.5;stroke-linecap:round;stroke-linejoin:round;stroke-miterlimit:4;stroke-dasharray:none;stroke-opacity:1"
         d="m 4057.32,2728.19 -0.25,8.85 -20.76,27.62 -7.56,18.01 -22.18,25.39 -6.85,2.73 1.95,2.43 76.32,73.1 75.48,49.99 6.94,-29.08 7.61,-3.16 2,-5.34 6.33,-0.12 8.5,-6.59 -0.22,-10.96 12.7,-35.58 20.16,-6.44 -27.29,-63.6 -3.69,-32.52 -6.96,-4.58 -10.68,-0.18 -9.54,-10.17 -10.47,1.13 -14.2,-15.37 -36.05,-12.93 -26.03,4.37 z" /><path
         id="path208"
         style="fill:#818283;fill-opacity:1;fill-rule:nonzero;stroke:none"
         d="m 5001.21,2958.78 -23.38,22.63 -57.45,-12.88 -11.28,-93.25 38.29,-1.44 5.59,-14.31 38.05,-21.88 16.81,36 z m 15.64,75.45 53.38,-109.24 -77.21,184.4 -3.39,-1.71 14.31,-73.25 z m 57.22,-117.37 14.34,-40.99 5.35,-44.11 -15.58,-117.56 -57.55,-19.21 -19.53,-18.7 75.45,15.77 23.45,161.7 -25.93,63.1" /><path
         id="path210"
         style="fill:none;stroke:#fbfcfc;stroke-width:2.5;stroke-linecap:round;stroke-linejoin:round;stroke-miterlimit:4;stroke-dasharray:none;stroke-opacity:1"
         d="m 5001.21,2958.78 -23.38,22.63 -57.45,-12.88 -11.28,-93.25 38.29,-1.44 5.59,-14.31 38.05,-21.88 16.81,36 z m 15.64,75.45 53.38,-109.24 -77.21,184.4 -3.39,-1.71 14.31,-73.25 z m 57.22,-117.37 14.34,-40.99 5.35,-44.11 -15.58,-117.56 -57.55,-19.21 -19.53,-18.7 75.45,15.77 23.45,161.7 z" /><path
         id="path212"
         style="fill:#818283;fill-opacity:1;fill-rule:evenodd;stroke:none"
         d="m 4542.82,2825.8 40.8,-47.25 97.54,-35.72 27.2,-32.13 -8.69,-14.78 -71.18,-8.32 -15.91,14.25 -100.61,71.08 7.7,39.95 8.39,11.84 14.76,1.08" /><path
         id="path214"
         style="fill:none;stroke:#fbfcfc;stroke-width:2.5;stroke-linecap:round;stroke-linejoin:round;stroke-miterlimit:4;stroke-dasharray:none;stroke-opacity:1"
         d="m 4542.82,2825.8 40.8,-47.25 97.54,-35.72 27.2,-32.13 -8.69,-14.78 -71.18,-8.32 -15.91,14.25 -100.61,71.08 7.7,39.95 8.39,11.84 z" /><path
         id="path216"
         style="fill:#818283;fill-opacity:1;fill-rule:evenodd;stroke:none"
         d="m 4584.73,2867.38 47.91,23.04 69.18,-1.02 8.43,-16.18 0.33,-12.11 7.47,-10.66 15.65,-6.41 6.99,-6.82 8.94,-14.92 -49.28,-8.91 3.19,-34.25 -25.92,-10.78 -134.8,57.44 -5.28,14.68 -9.8,5.21 -1.25,9.1 -7.66,6.46 -4.24,12.03 3.98,4.99 -6.79,9.84 1.11,5.08 5.01,0.99 -0.35,7.38 5.81,1.92 61.37,-36.1" /><path
         id="path218"
         style="fill:none;stroke:#fbfcfc;stroke-width:2.5;stroke-linecap:round;stroke-linejoin:round;stroke-miterlimit:4;stroke-dasharray:none;stroke-opacity:1"
         d="m 4584.73,2867.38 47.91,23.04 69.18,-1.02 8.43,-16.18 0.33,-12.11 7.47,-10.66 15.65,-6.41 6.99,-6.82 8.94,-14.92 -49.28,-8.91 3.19,-34.25 -25.92,-10.78 -134.8,57.44 -5.28,14.68 -9.8,5.21 -1.25,9.1 -7.66,6.46 -4.24,12.03 3.98,4.99 -6.79,9.84 1.11,5.08 5.01,0.99 -0.35,7.38 5.81,1.92 z" /><path
         id="path220"
         style="fill:#818283;fill-opacity:1;fill-rule:evenodd;stroke:none"
         d="m 4305.51,2748.71 0.36,15.44 -8.96,9.06 1.46,62.6 43.29,33.18 21.72,-27.54 23.51,-23.24 5.1,-2.58 8.85,1.85 0.8,-5.69 5.79,-5.24 -0.21,-7.92 10.38,-26.29 -7.04,-5.85 -13.63,4.31 -0.75,-6.58 -7.29,-8.67 -21.34,-6.06 -14.97,-11.12 -6.23,2.6 -4.72,9.91 -21.07,-3.27 -15.05,1.1" /><path
         id="path222"
         style="fill:none;stroke:#fbfcfc;stroke-width:2.5;stroke-linecap:round;stroke-linejoin:round;stroke-miterlimit:4;stroke-dasharray:none;stroke-opacity:1"
         d="m 4305.51,2748.71 0.36,15.44 -8.96,9.06 1.46,62.6 43.29,33.18 21.72,-27.54 23.51,-23.24 5.1,-2.58 8.85,1.85 0.8,-5.69 5.79,-5.24 -0.21,-7.92 10.38,-26.29 -7.04,-5.85 -13.63,4.31 -0.75,-6.58 -7.29,-8.67 -21.34,-6.06 -14.97,-11.12 -6.23,2.6 -4.72,9.91 -21.07,-3.27 z" /><path
         id="path224"
         style="fill:#818283;fill-opacity:1;fill-rule:evenodd;stroke:none"
         d="m 3839.53,2723.8 -27.7,16.6 -6.91,20.01 -6.24,6.64 -7.24,2.5 -2.2,12.45 -10.62,10.63 6.36,8.82 0.25,7.73 3.85,4.88 6.33,2.03 -0.73,5.1 3.26,1.49 6.51,0.71 3.4,-5.88 16.56,14.59 2.24,-6.05 3.65,1.1 5.24,9.02 20.85,20.58 22.1,-10.78 9.74,-20.48 21.66,-13.43 -70.36,-88.26" /><path
         id="path226"
         style="fill:none;stroke:#fbfcfc;stroke-width:2.5;stroke-linecap:round;stroke-linejoin:round;stroke-miterlimit:4;stroke-dasharray:none;stroke-opacity:1"
         d="m 3839.53,2723.8 -27.7,16.6 -6.91,20.01 -6.24,6.64 -7.24,2.5 -2.2,12.45 -10.62,10.63 6.36,8.82 0.25,7.73 3.85,4.88 6.33,2.03 -0.73,5.1 3.26,1.49 6.51,0.71 3.4,-5.88 16.56,14.59 2.24,-6.05 3.65,1.1 5.24,9.02 20.85,20.58 22.1,-10.78 9.74,-20.48 21.66,-13.43 z" /><path
         id="path228"
         style="fill:#818283;fill-opacity:1;fill-rule:evenodd;stroke:none"
         d="m 4184.38,2673.16 -0.67,4.52 -31.21,11.49 -17.84,24.58 14.2,15.37 10.47,-1.13 9.54,10.17 10.68,0.18 6.96,4.58 3.69,32.52 27.29,63.6 1.64,5.26 19.74,-7.77 59.2,2.87 0.3,-3.59 -1.46,-62.6 8.96,-9.06 -0.36,-15.44 -8.42,-9.23 -2.21,-70.69 -17.28,-6.94 -2.2,-4.46 -6.7,6.53 -10.39,3.42 -6.51,-1.74 -12.94,9.29 -11.62,-0.32 -17.26,-6.42 -25.6,5.01" /><path
         id="path230"
         style="fill:none;stroke:#fbfcfc;stroke-width:2.5;stroke-linecap:round;stroke-linejoin:round;stroke-miterlimit:4;stroke-dasharray:none;stroke-opacity:1"
         d="m 4184.38,2673.16 -0.67,4.52 -31.21,11.49 -17.84,24.58 14.2,15.37 10.47,-1.13 9.54,10.17 10.68,0.18 6.96,4.58 3.69,32.52 27.29,63.6 1.64,5.26 19.74,-7.77 59.2,2.87 0.3,-3.59 -1.46,-62.6 8.96,-9.06 -0.36,-15.44 -8.42,-9.23 -2.21,-70.69 -17.28,-6.94 -2.2,-4.46 -6.7,6.53 -10.39,3.42 -6.51,-1.74 -12.94,9.29 -11.62,-0.32 -17.26,-6.42 z" /><path
         id="path232"
         style="fill:#818283;fill-opacity:1;fill-rule:evenodd;stroke:none"
         d="m 4032.28,2698.65 -34.96,6.69 -32.59,-0.53 -21.04,-6.7 -3.87,-5.22 -8.99,-3.1 -62.02,-13.45 -17.23,9.55 -7.54,9.47 -16.09,12.17 11.58,16.27 70.36,88.26 18.07,25.66 73.71,-24.5 -1.95,-2.43 6.85,-2.73 22.18,-25.39 7.56,-18.01 20.76,-27.62 0.25,-8.85 -14.11,-11.83 -10.93,-17.71" /><path
         id="path234"
         style="fill:none;stroke:#fbfcfc;stroke-width:2.5;stroke-linecap:round;stroke-linejoin:round;stroke-miterlimit:4;stroke-dasharray:none;stroke-opacity:1"
         d="m 4032.28,2698.65 -34.96,6.69 -32.59,-0.53 -21.04,-6.7 -3.87,-5.22 -8.99,-3.1 -62.02,-13.45 -17.23,9.55 -7.54,9.47 -16.09,12.17 11.58,16.27 70.36,88.26 18.07,25.66 73.71,-24.5 -1.95,-2.43 6.85,-2.73 22.18,-25.39 7.56,-18.01 20.76,-27.62 0.25,-8.85 -14.11,-11.83 z" /><path
         id="path236"
         style="fill:#818283;fill-opacity:1;fill-rule:evenodd;stroke:none"
         d="m 3115.36,2665.48 -13.31,-0.38 -136.41,8.12 1.98,15.83 7.56,13.86 13.35,41.08 4.53,88.13 13.67,-5.04 18.88,3.52 8.65,-2.69 13.16,2.48 5.64,-6.14 -2.89,-10.43 23.83,-44.88 12.74,-22.23 18.33,-13.48 -3.91,-7.02 4.22,-14.62 11.13,-6.05 2.71,-30.05 -3.86,-10.01" /><path
         id="path238"
         style="fill:none;stroke:#fbfcfc;stroke-width:2.5;stroke-linecap:round;stroke-linejoin:round;stroke-miterlimit:4;stroke-dasharray:none;stroke-opacity:1"
         d="m 3115.36,2665.48 -13.31,-0.38 -136.41,8.12 1.98,15.83 7.56,13.86 13.35,41.08 4.53,88.13 13.67,-5.04 18.88,3.52 8.65,-2.69 13.16,2.48 5.64,-6.14 -2.89,-10.43 23.83,-44.88 12.74,-22.23 18.33,-13.48 -3.91,-7.02 4.22,-14.62 11.13,-6.05 2.71,-30.05 z" /><path
         id="path240"
         style="fill:#818283;fill-opacity:1;fill-rule:evenodd;stroke:none"
         d="m 3239.21,2762.33 -165.21,6.61 -23.83,44.88 2.89,10.43 -5.64,6.14 190.21,-7.36 3.51,-6.19 -1.45,-8.13 4.45,-24.09 -3.95,-6.26 -0.98,-16.03" /><path
         id="path242"
         style="fill:none;stroke:#fbfcfc;stroke-width:2.5;stroke-linecap:round;stroke-linejoin:round;stroke-miterlimit:4;stroke-dasharray:none;stroke-opacity:1"
         d="m 3239.21,2762.33 -165.21,6.61 -23.83,44.88 2.89,10.43 -5.64,6.14 190.21,-7.36 3.51,-6.19 -1.45,-8.13 4.45,-24.09 -3.95,-6.26 z" /><path
         id="path244"
         style="fill:#818283;fill-opacity:1;fill-rule:evenodd;stroke:none"
         d="m 3695.73,2663.59 -13.84,12.64 -20.25,36.74 -19.2,94.42 70.92,2.96 71.87,-1.17 -0.25,-7.73 -6.36,-8.82 10.62,-10.63 2.2,-12.45 7.24,-2.5 6.24,-6.64 6.91,-20.01 27.7,-16.6 -11.58,-16.27 16.09,-12.17 7.54,-9.47 17.23,-9.55 -0.43,-5.45 -8.4,-2.74 -8.55,1.39 -29.78,12.28 -38.83,-25.83 -35.63,-42.77 -13.43,10.39 -19.57,0.66 -7.21,3.79 -0.48,18.96 -10.77,16.57" /><path
         id="path246"
         style="fill:none;stroke:#fbfcfc;stroke-width:2.5;stroke-linecap:round;stroke-linejoin:round;stroke-miterlimit:4;stroke-dasharray:none;stroke-opacity:1"
         d="m 3695.73,2663.59 -13.84,12.64 -20.25,36.74 -19.2,94.42 70.92,2.96 71.87,-1.17 -0.25,-7.73 -6.36,-8.82 10.62,-10.63 2.2,-12.45 7.24,-2.5 6.24,-6.64 6.91,-20.01 27.7,-16.6 -11.58,-16.27 16.09,-12.17 7.54,-9.47 17.23,-9.55 -0.43,-5.45 -8.4,-2.74 -8.55,1.39 -29.78,12.28 -38.83,-25.83 -35.63,-42.77 -13.43,10.39 -19.57,0.66 -7.21,3.79 -0.48,18.96 z" /><path
         id="path248"
         style="fill:#818283;fill-opacity:1;fill-rule:evenodd;stroke:none"
         d="m 3207.91,2660.42 8.57,-1.03 5.64,5.88 1.95,13.55 -4.24,22.33 11.64,34.55 18.06,6.4 -3.89,6.74 -15.28,1.73 8.85,11.76 0.98,16.03 3.95,6.26 -4.45,24.09 60.6,-0.96 0.29,-11.32 4.63,-5.99 5.5,-18.81 -5.85,-7.96 24.61,-24.86 10.34,-31.54 40.53,-24.38 -74.45,-69.98 -12.7,-3.48 -14.53,-10.82 -18.45,23.85 -11.19,17.16 -37.93,-26.47 -8.68,12.1 12.55,16.09 -6.97,11.01 -0.08,8.07" /><path
         id="path250"
         style="fill:none;stroke:#fbfcfc;stroke-width:2.5;stroke-linecap:round;stroke-linejoin:round;stroke-miterlimit:4;stroke-dasharray:none;stroke-opacity:1"
         d="m 3207.91,2660.42 8.57,-1.03 5.64,5.88 1.95,13.55 -4.24,22.33 11.64,34.55 18.06,6.4 -3.89,6.74 -15.28,1.73 8.85,11.76 0.98,16.03 3.95,6.26 -4.45,24.09 60.6,-0.96 0.29,-11.32 4.63,-5.99 5.5,-18.81 -5.85,-7.96 24.61,-24.86 10.34,-31.54 40.53,-24.38 -74.45,-69.98 -12.7,-3.48 -14.53,-10.82 -18.45,23.85 -11.19,17.16 -37.93,-26.47 -8.68,12.1 12.55,16.09 -6.97,11.01 z" /><path
         id="path252"
         style="fill:#818283;fill-opacity:1;fill-rule:evenodd;stroke:none"
         d="m 3392.76,2675.07 -12.42,7.82 -40.53,24.38 -10.34,31.54 -24.61,24.86 5.85,7.96 -5.5,18.81 -4.63,5.99 -0.29,11.32 16.83,0.32 144.9,-5.27 -27.15,-45.7 -34.93,-72.22 -7.18,-9.81" /><path
         id="path254"
         style="fill:none;stroke:#fbfcfc;stroke-width:2.5;stroke-linecap:round;stroke-linejoin:round;stroke-miterlimit:4;stroke-dasharray:none;stroke-opacity:1"
         d="m 3392.76,2675.07 -12.42,7.82 -40.53,24.38 -10.34,31.54 -24.61,24.86 5.85,7.96 -5.5,18.81 -4.63,5.99 -0.29,11.32 16.83,0.32 144.9,-5.27 -27.15,-45.7 -34.93,-72.22 z" /><path
         id="path256"
         style="fill:#818283;fill-opacity:1;fill-rule:evenodd;stroke:none"
         d="m 3538.76,2660.1 4.17,10.9 -2.29,12.77 -8.97,19.17 -0.39,15.43 14.47,31.07 -0.38,4.33 -21.8,36.34 -15.48,4.32 -6.71,12.62 39.75,0.24 101.31,0.1 19.2,-94.42 20.25,-36.74 13.84,-12.64 -10.09,-2.21 -20.53,7.96 -20.94,-2.39 -25.87,2.69 -24.75,-7.48 -22.45,-2.06 -11.79,-5.63 -18.44,-0.23 -2.11,5.86" /><path
         id="path258"
         style="fill:none;stroke:#fbfcfc;stroke-width:2.5;stroke-linecap:round;stroke-linejoin:round;stroke-miterlimit:4;stroke-dasharray:none;stroke-opacity:1"
         d="m 3538.76,2660.1 4.17,10.9 -2.29,12.77 -8.97,19.17 -0.39,15.43 14.47,31.07 -0.38,4.33 -21.8,36.34 -15.48,4.32 -6.71,12.62 39.75,0.24 101.31,0.1 19.2,-94.42 20.25,-36.74 13.84,-12.64 -10.09,-2.21 -20.53,7.96 -20.94,-2.39 -25.87,2.69 -24.75,-7.48 -22.45,-2.06 -11.79,-5.63 -18.44,-0.23 z" /><path
         id="path260"
         style="fill:#818283;fill-opacity:1;fill-rule:evenodd;stroke:none"
         d="m 3538.76,2660.1 -13.15,17.83 -7.22,-9.4 -7.81,2.05 -1.5,-8.83 -3.05,-2.07 -7.43,7.5 -10.08,-3.59 -9.37,18.77 -4.57,-0.2 -4.74,-4.53 -17.11,-7.94 -7.8,-1.34 -8.19,2.97 -8.73,-5.48 -10.09,1.64 -8.36,-3.23 -10.14,9.16 -6.66,1.66 7.18,9.81 34.93,72.22 27.15,45.7 39.36,4.25 6.71,-12.62 15.48,-4.32 21.8,-36.34 0.38,-4.33 -14.47,-31.07 0.39,-15.43 8.97,-19.17 2.29,-12.77 -4.17,-10.9" /><path
         id="path262"
         style="fill:none;stroke:#fbfcfc;stroke-width:2.5;stroke-linecap:round;stroke-linejoin:round;stroke-miterlimit:4;stroke-dasharray:none;stroke-opacity:1"
         d="m 3538.76,2660.1 -13.15,17.83 -7.22,-9.4 -7.81,2.05 -1.5,-8.83 -3.05,-2.07 -7.43,7.5 -10.08,-3.59 -9.37,18.77 -4.57,-0.2 -4.74,-4.53 -17.11,-7.94 -7.8,-1.34 -8.19,2.97 -8.73,-5.48 -10.09,1.64 -8.36,-3.23 -10.14,9.16 -6.66,1.66 7.18,9.81 34.93,72.22 27.15,45.7 39.36,4.25 6.71,-12.62 15.48,-4.32 21.8,-36.34 0.38,-4.33 -14.47,-31.07 0.39,-15.43 8.97,-19.17 2.29,-12.77 z" /><path
         id="path264"
         style="fill:#818283;fill-opacity:1;fill-rule:evenodd;stroke:none"
         d="m 4294.88,2668.79 2.21,70.69 8.42,9.23 15.05,-1.1 21.07,3.27 4.72,-9.91 6.23,-2.6 14.97,11.12 21.34,6.06 7.29,8.67 0.75,6.58 13.63,-4.31 7.04,5.85 10.13,-27.78 14.36,-4.91 5.19,-5.6 -9.13,0.81 -12.54,-12.09 0.57,-6.79 6.39,-10.7 -15.04,-13.53 -18.35,5.18 5.94,-34.75 -7.54,-4.5 -22.48,-30.61 -44.81,-28.94 -4.35,0.67 -3.45,6.46 1.15,32.07 -4.24,13.62 -24.52,17.84" /><path
         id="path266"
         style="fill:none;stroke:#fbfcfc;stroke-width:2.5;stroke-linecap:round;stroke-linejoin:round;stroke-miterlimit:4;stroke-dasharray:none;stroke-opacity:1"
         d="m 4294.88,2668.79 2.21,70.69 8.42,9.23 15.05,-1.1 21.07,3.27 4.72,-9.91 6.23,-2.6 14.97,11.12 21.34,6.06 7.29,8.67 0.75,6.58 13.63,-4.31 7.04,5.85 10.13,-27.78 14.36,-4.91 5.19,-5.6 -9.13,0.81 -12.54,-12.09 0.57,-6.79 6.39,-10.7 -15.04,-13.53 -18.35,5.18 5.94,-34.75 -7.54,-4.5 -22.48,-30.61 -44.81,-28.94 -4.35,0.67 -3.45,6.46 1.15,32.07 -4.24,13.62 z" /><path
         id="path268"
         style="fill:#818283;fill-opacity:1;fill-rule:evenodd;stroke:none"
         d="m 3115.36,2665.48 3.86,10.01 -2.71,30.05 -11.13,6.05 -4.22,14.62 3.91,7.02 -18.33,13.48 -12.74,22.23 165.21,-6.61 -8.85,-11.76 15.28,-1.73 3.89,-6.74 -18.06,-6.4 -11.64,-34.55 4.24,-22.33 -1.95,-13.55 -5.64,-5.88 -8.57,1.03 -92.55,5.06" /><path
         id="path270"
         style="fill:none;stroke:#fbfcfc;stroke-width:2.5;stroke-linecap:round;stroke-linejoin:round;stroke-miterlimit:4;stroke-dasharray:none;stroke-opacity:1"
         d="m 3115.36,2665.48 3.86,10.01 -2.71,30.05 -11.13,6.05 -4.22,14.62 3.91,7.02 -18.33,13.48 -12.74,22.23 165.21,-6.61 -8.85,-11.76 15.28,-1.73 3.89,-6.74 -18.06,-6.4 -11.64,-34.55 4.24,-22.33 -1.95,-13.55 -5.64,-5.88 -8.57,1.03 z" /><path
         id="path272"
         style="fill:#818283;fill-opacity:1;fill-rule:evenodd;stroke:none"
         d="m 4201.1,2482.75 0.01,-8.98 -14.55,-9.06 -33.85,-50.73 -6.03,11.31 -10.58,9.89 -4.74,10.17 3.45,2.37 -4.28,4 -5.59,15.23 -8.44,3.89 -7.73,12.28 -4.85,15.41 -33.26,39.47 -14.44,21.76 -17.42,14.69 -13.8,16.88 -10.88,35.99 2.79,9.16 4.24,3.69 4.11,21.17 -3.97,14.9 4.23,3.13 -0.87,5.66 7.63,13.62 10.93,17.71 14.11,11.83 15.26,-23 26.03,-4.37 36.05,12.93 17.84,-24.58 31.21,-11.49 0.67,-4.52 -2.4,-35.09 5.09,-12.11 4.15,-68.9 -17.75,-64.99 13.31,-6.24 6.86,-7.05 7.46,3.97" /><path
         id="path274"
         style="fill:none;stroke:#fbfcfc;stroke-width:2.5;stroke-linecap:round;stroke-linejoin:round;stroke-miterlimit:4;stroke-dasharray:none;stroke-opacity:1"
         d="m 4201.1,2482.75 0.01,-8.98 -14.55,-9.06 -33.85,-50.73 -6.03,11.31 -10.58,9.89 -4.74,10.17 3.45,2.37 -4.28,4 -5.59,15.23 -8.44,3.89 -7.73,12.28 -4.85,15.41 -33.26,39.47 -14.44,21.76 -17.42,14.69 -13.8,16.88 -10.88,35.99 2.79,9.16 4.24,3.69 4.11,21.17 -3.97,14.9 4.23,3.13 -0.87,5.66 7.63,13.62 10.93,17.71 14.11,11.83 15.26,-23 26.03,-4.37 36.05,12.93 17.84,-24.58 31.21,-11.49 0.67,-4.52 -2.4,-35.09 5.09,-12.11 4.15,-68.9 -17.75,-64.99 13.31,-6.24 6.86,-7.05 z" /><path
         id="path276"
         style="fill:#818283;fill-opacity:1;fill-rule:evenodd;stroke:none"
         d="m 4597.14,2626.72 -0.34,12.28 -15.45,22.47 5.94,1.13 1.94,12.91 6.49,12.02 16.86,14.32 15.91,-14.25 71.18,8.32 8.69,14.78 7.88,16.23 17,-3.48 11.45,-22.76 -44.98,-31.57 11.79,-14.06 -6.43,-30.69 -18.19,-16.63 -58.01,-17.3 -31.14,18.67 -0.59,17.61" /><path
         id="path278"
         style="fill:none;stroke:#fbfcfc;stroke-width:2.5;stroke-linecap:round;stroke-linejoin:round;stroke-miterlimit:4;stroke-dasharray:none;stroke-opacity:1"
         d="m 4597.14,2626.72 -0.34,12.28 -15.45,22.47 5.94,1.13 1.94,12.91 6.49,12.02 16.86,14.32 15.91,-14.25 71.18,8.32 8.69,14.78 7.88,16.23 17,-3.48 11.45,-22.76 -44.98,-31.57 11.79,-14.06 -6.43,-30.69 -18.19,-16.63 -58.01,-17.3 -31.14,18.67 z" /><path
         id="path280"
         style="fill:#818283;fill-opacity:1;fill-rule:evenodd;stroke:none"
         d="m 4070.66,2538 -6.14,-4.77 -106.31,0.34 -21.86,-5.55 -5.51,-1.43 -5.44,21.59 -6.72,9.44 -28.8,21.1 -20.54,34.71 -4.23,33.63 3.27,23.83 0.43,5.45 62.02,13.45 8.99,3.1 3.87,5.22 21.04,6.7 32.59,0.53 34.96,-6.69 -7.63,-13.62 0.87,-5.66 -4.23,-3.13 3.97,-14.9 -4.11,-21.17 -4.24,-3.69 -2.79,-9.16 10.88,-35.99 13.8,-16.88 17.42,-14.69 14.44,-21.76" /><path
         id="path282"
         style="fill:none;stroke:#fbfcfc;stroke-width:2.5;stroke-linecap:round;stroke-linejoin:round;stroke-miterlimit:4;stroke-dasharray:none;stroke-opacity:1"
         d="m 4070.66,2538 -6.14,-4.77 -106.31,0.34 -21.86,-5.55 -5.51,-1.43 -5.44,21.59 -6.72,9.44 -28.8,21.1 -20.54,34.71 -4.23,33.63 3.27,23.83 0.43,5.45 62.02,13.45 8.99,3.1 3.87,5.22 21.04,6.7 32.59,0.53 34.96,-6.69 -7.63,-13.62 0.87,-5.66 -4.23,-3.13 3.97,-14.9 -4.11,-21.17 -4.24,-3.69 -2.79,-9.16 10.88,-35.99 13.8,-16.88 17.42,-14.69 z" /><path
         id="path284"
         style="fill:#818283;fill-opacity:1;fill-rule:evenodd;stroke:none"
         d="m 4561.35,2528.14 -2.86,-6.66 -5.3,0.16 -9.33,-7.39 -20,-3.71 -1.5,-5.75 -9.67,12.26 4.32,11.48 -8.87,1.38 -5.65,20.21 -21.13,17.28 -16.82,2.53 -11.78,-7.54 -43.87,19.91 -47.24,8.89 -14.8,-7.14 -16.56,14.08 44.81,28.94 22.48,30.61 7.54,4.5 -5.94,34.75 18.35,-5.18 17.15,-13.62 73.72,-43.96 8.89,-14.34 13.12,0.36 3.16,6.22 6.95,-1.34 2.44,-17.26 -2.09,-79.99 20.48,0.32" /><path
         id="path286"
         style="fill:none;stroke:#fbfcfc;stroke-width:2.5;stroke-linecap:round;stroke-linejoin:round;stroke-miterlimit:4;stroke-dasharray:none;stroke-opacity:1"
         d="m 4561.35,2528.14 -2.86,-6.66 -5.3,0.16 -9.33,-7.39 -20,-3.71 -1.5,-5.75 -9.67,12.26 4.32,11.48 -8.87,1.38 -5.65,20.21 -21.13,17.28 -16.82,2.53 -11.78,-7.54 -43.87,19.91 -47.24,8.89 -14.8,-7.14 -16.56,14.08 44.81,28.94 22.48,30.61 7.54,4.5 -5.94,34.75 18.35,-5.18 17.15,-13.62 73.72,-43.96 8.89,-14.34 13.12,0.36 3.16,6.22 6.95,-1.34 2.44,-17.26 -2.09,-79.99 z" /><path
         id="path288"
         style="fill:#818283;fill-opacity:1;fill-rule:evenodd;stroke:none"
         d="m 3278.66,2598.61 14.53,10.82 12.7,3.48 74.45,69.98 12.42,-7.82 6.66,-1.66 10.14,-9.16 8.36,3.23 10.09,-1.64 8.73,5.48 8.19,-2.97 7.8,1.34 17.11,7.94 -16.97,-156.27 -79.94,0.19 -80.7,0.37 4.88,51.35 -18.45,25.34" /><path
         id="path290"
         style="fill:none;stroke:#fbfcfc;stroke-width:2.5;stroke-linecap:round;stroke-linejoin:round;stroke-miterlimit:4;stroke-dasharray:none;stroke-opacity:1"
         d="m 3278.66,2598.61 14.53,10.82 12.7,3.48 74.45,69.98 12.42,-7.82 6.66,-1.66 10.14,-9.16 8.36,3.23 10.09,-1.64 8.73,5.48 8.19,-2.97 7.8,1.34 17.11,7.94 -16.97,-156.27 -79.94,0.19 -80.7,0.37 4.88,51.35 z" /><path
         id="path292"
         style="fill:#818283;fill-opacity:1;fill-rule:evenodd;stroke:none"
         d="m 3590,2518.54 -137.13,2.82 16.97,156.27 4.74,4.53 4.57,0.2 9.37,-18.77 10.08,3.59 7.43,-7.5 3.05,2.07 1.5,8.83 7.81,-2.05 7.22,9.4 13.15,-17.83 2.11,-5.86 2.27,-13.48 18.83,-5.82 9.31,2.82 10.28,7.69 5.89,0.18 4.18,-3.75 2.27,-11.46 8.91,-14.27 -4,-15.38 9.09,-16.32 4.51,-26.05 -16.14,-21.52 -6.27,-18.34" /><path
         id="path294"
         style="fill:none;stroke:#fbfcfc;stroke-width:2.5;stroke-linecap:round;stroke-linejoin:round;stroke-miterlimit:4;stroke-dasharray:none;stroke-opacity:1"
         d="m 3590,2518.54 -137.13,2.82 16.97,156.27 4.74,4.53 4.57,0.2 9.37,-18.77 10.08,3.59 7.43,-7.5 3.05,2.07 1.5,8.83 7.81,-2.05 7.22,9.4 13.15,-17.83 2.11,-5.86 2.27,-13.48 18.83,-5.82 9.31,2.82 10.28,7.69 5.89,0.18 4.18,-3.75 2.27,-11.46 8.91,-14.27 -4,-15.38 9.09,-16.32 4.51,-26.05 -16.14,-21.52 z" /><path
         id="path296"
         style="fill:#818283;fill-opacity:1;fill-rule:evenodd;stroke:none"
         d="m 3786.12,2529.96 -6.9,45 -12.76,21.26 -19.27,17 35.63,42.77 38.83,25.83 29.78,-12.28 8.55,-1.39 8.4,2.74 -3.27,-23.83 4.23,-33.63 20.54,-34.71 -50.16,-50.3 -53.6,1.54" /><path
         id="path298"
         style="fill:none;stroke:#fbfcfc;stroke-width:2.5;stroke-linecap:round;stroke-linejoin:round;stroke-miterlimit:4;stroke-dasharray:none;stroke-opacity:1"
         d="m 3786.12,2529.96 -6.9,45 -12.76,21.26 -19.27,17 35.63,42.77 38.83,25.83 29.78,-12.28 8.55,-1.39 8.4,2.74 -3.27,-23.83 4.23,-33.63 20.54,-34.71 -50.16,-50.3 z" /><path
         id="path300"
         style="fill:#818283;fill-opacity:1;fill-rule:nonzero;stroke:none"
         d="m 4965.69,2666.95 -41.19,-21.14 -13.98,-19.33 h 4.78 l 33.47,26.08 31.27,13.04 16.18,11.7 z m -18.3,206.89 -38.29,1.44 -28.27,-2.27 -21.17,13.83 -14.52,-38.5 -7.63,-4.04 -21.94,7.08 8.18,32.4 -45.67,4 -76.26,1.62 8.43,-16.18 0.33,-12.11 7.47,-10.66 15.65,-6.41 6.99,-6.82 24.5,-11.14 -4.03,-19.31 -25.48,-22.52 11.83,-14.12 107.31,-30.99 43.53,30.33 54.63,90.06 -5.59,14.31" /><path
         id="path302"
         style="fill:none;stroke:#fbfcfc;stroke-width:2.5;stroke-linecap:round;stroke-linejoin:round;stroke-miterlimit:4;stroke-dasharray:none;stroke-opacity:1"
         d="m 4965.69,2666.95 -41.19,-21.14 -13.98,-19.33 h 4.78 l 33.47,26.08 31.27,13.04 16.18,11.7 z m -18.3,206.89 -38.29,1.44 -28.27,-2.27 -21.17,13.83 -14.52,-38.5 -7.63,-4.04 -21.94,7.08 8.18,32.4 -45.67,4 -76.26,1.62 8.43,-16.18 0.33,-12.11 7.47,-10.66 15.65,-6.41 6.99,-6.82 24.5,-11.14 -4.03,-19.31 -25.48,-22.52 11.83,-14.12 107.31,-30.99 43.53,30.33 54.63,90.06 z" /><path
         id="path304"
         style="fill:#818283;fill-opacity:1;fill-rule:evenodd;stroke:none"
         d="m 4344.53,2482.42 -80.13,-3.78 -4.27,3.46 -16.86,-0.96 -9.55,4.88 -32.62,-3.27 -7.46,-3.97 -6.86,7.05 -13.31,6.24 17.75,64.99 -4.15,68.9 -5.09,12.11 2.4,35.09 25.6,-5.01 17.26,6.42 11.62,0.32 12.94,-9.29 6.51,1.74 10.39,-3.42 6.7,-6.53 2.2,4.46 17.28,6.94 24.52,-17.84 4.24,-13.62 -1.15,-32.07 3.45,-6.46 4.35,-0.67 16.56,-14.08 9.38,-19.73 -11.7,-81.9" /><path
         id="path306"
         style="fill:none;stroke:#fbfcfc;stroke-width:2.5;stroke-linecap:round;stroke-linejoin:round;stroke-miterlimit:4;stroke-dasharray:none;stroke-opacity:1"
         d="m 4344.53,2482.42 -80.13,-3.78 -4.27,3.46 -16.86,-0.96 -9.55,4.88 -32.62,-3.27 -7.46,-3.97 -6.86,7.05 -13.31,6.24 17.75,64.99 -4.15,68.9 -5.09,12.11 2.4,35.09 25.6,-5.01 17.26,6.42 11.62,0.32 12.94,-9.29 6.51,1.74 10.39,-3.42 6.7,-6.53 2.2,4.46 17.28,6.94 24.52,-17.84 4.24,-13.62 -1.15,-32.07 3.45,-6.46 4.35,-0.67 16.56,-14.08 9.38,-19.73 z" /><path
         id="path308"
         style="fill:#818283;fill-opacity:1;fill-rule:evenodd;stroke:none"
         d="m 3669.17,2517.45 -79.17,1.09 6.27,18.34 16.14,21.52 -4.51,26.05 -9.09,16.32 4,15.38 -8.91,14.27 -2.27,11.46 -4.18,3.75 -5.89,-0.18 -10.28,-7.69 -9.31,-2.82 -18.83,5.82 -2.27,13.48 18.44,0.23 11.79,5.63 22.45,2.06 24.75,7.48 25.87,-2.69 20.94,2.39 20.53,-7.96 10.09,2.21 10.77,-16.57 0.48,-18.96 7.21,-3.79 19.57,-0.66 13.43,-10.39 -31.04,-15.41 -8.78,-8.96 -2.53,-13.86 5.05,-15.39 -19.06,-23.89 3.55,-13.12 -16.48,0.07 -8.73,-5.21" /><path
         id="path310"
         style="fill:none;stroke:#fbfcfc;stroke-width:2.5;stroke-linecap:round;stroke-linejoin:round;stroke-miterlimit:4;stroke-dasharray:none;stroke-opacity:1"
         d="m 3669.17,2517.45 -79.17,1.09 6.27,18.34 16.14,21.52 -4.51,26.05 -9.09,16.32 4,15.38 -8.91,14.27 -2.27,11.46 -4.18,3.75 -5.89,-0.18 -10.28,-7.69 -9.31,-2.82 -18.83,5.82 -2.27,13.48 18.44,0.23 11.79,5.63 22.45,2.06 24.75,7.48 25.87,-2.69 20.94,2.39 20.53,-7.96 10.09,2.21 10.77,-16.57 0.48,-18.96 7.21,-3.79 19.57,-0.66 13.43,-10.39 -31.04,-15.41 -8.78,-8.96 -2.53,-13.86 5.05,-15.39 -19.06,-23.89 3.55,-13.12 -16.48,0.07 z" /><path
         id="path312"
         style="fill:#818283;fill-opacity:1;fill-rule:evenodd;stroke:none"
         d="m 4540.52,2625.07 37.01,-5.43 29.8,-48.08 90.02,-12.44 7.25,-6.47 -42.15,-17.47 -101.1,-7.04 -20.48,-0.32 2.09,79.99 -2.44,17.26" /><path
         id="path314"
         style="fill:none;stroke:#fbfcfc;stroke-width:2.5;stroke-linecap:round;stroke-linejoin:round;stroke-miterlimit:4;stroke-dasharray:none;stroke-opacity:1"
         d="m 4540.52,2625.07 37.01,-5.43 29.8,-48.08 90.02,-12.44 7.25,-6.47 -42.15,-17.47 -101.1,-7.04 -20.48,-0.32 2.09,79.99 z" /><path
         id="path316"
         style="fill:#818283;fill-opacity:1;fill-rule:evenodd;stroke:none"
         d="m 4488.55,2742.7 6.73,1.69 1.27,10.7 9.92,6.5 5.5,11.34 100.61,-71.08 -16.86,-14.32 -6.49,-12.02 -1.94,-12.91 -5.94,-1.13 15.45,-22.47 0.34,-12.28 -35.41,9.15 -19.21,-1.72 -2,-9.08 -6.95,1.34 -3.16,-6.22 -13.12,-0.36 -8.89,14.34 -73.72,43.96 -17.15,13.62 15.04,13.53 -6.39,10.7 -0.57,6.79 12.54,12.09 9.13,-0.81 10.81,-2.36 20.44,20.9 10.02,-9.89" /><path
         id="path318"
         style="fill:none;stroke:#fbfcfc;stroke-width:2.5;stroke-linecap:round;stroke-linejoin:round;stroke-miterlimit:4;stroke-dasharray:none;stroke-opacity:1"
         d="m 4488.55,2742.7 6.73,1.69 1.27,10.7 9.92,6.5 5.5,11.34 100.61,-71.08 -16.86,-14.32 -6.49,-12.02 -1.94,-12.91 -5.94,-1.13 15.45,-22.47 0.34,-12.28 -35.41,9.15 -19.21,-1.72 -2,-9.08 -6.95,1.34 -3.16,-6.22 -13.12,-0.36 -8.89,14.34 -73.72,43.96 -17.15,13.62 15.04,13.53 -6.39,10.7 -0.57,6.79 12.54,12.09 9.13,-0.81 10.81,-2.36 20.44,20.9 z" /><path
         id="path320"
         style="fill:#818283;fill-opacity:1;fill-rule:evenodd;stroke:none"
         d="m 3746.98,2446.99 -71.57,68.56 -6.24,1.9 8.73,5.21 16.48,-0.07 -3.55,13.12 19.06,23.89 -5.05,15.39 2.53,13.86 8.78,8.96 31.04,15.41 19.27,-17 12.76,-21.26 6.9,-45 -1.41,-11.04 5.58,-15 -43.31,-56.93" /><path
         id="path322"
         style="fill:none;stroke:#fbfcfc;stroke-width:2.5;stroke-linecap:round;stroke-linejoin:round;stroke-miterlimit:4;stroke-dasharray:none;stroke-opacity:1"
         d="m 3746.98,2446.99 -71.57,68.56 -6.24,1.9 8.73,5.21 16.48,-0.07 -3.55,13.12 19.06,23.89 -5.05,15.39 2.53,13.86 8.78,8.96 31.04,15.41 19.27,-17 12.76,-21.26 6.9,-45 -1.41,-11.04 5.58,-15 z" /><path
         id="path324"
         style="fill:#818283;fill-opacity:1;fill-rule:evenodd;stroke:none"
         d="m 4395.69,2374.26 -12.75,5.06 -38.41,103.1 11.7,81.9 -9.38,19.73 14.8,7.14 47.24,-8.89 43.87,-19.91 11.78,7.54 16.82,-2.53 21.13,-17.28 5.65,-20.21 8.87,-1.38 -4.32,-11.48 9.67,-12.26 5.18,-4.2 6.61,-32.69 -9.2,-9.99 -129.26,-83.65" /><path
         id="path326"
         style="fill:none;stroke:#fbfcfc;stroke-width:2.5;stroke-linecap:round;stroke-linejoin:round;stroke-miterlimit:4;stroke-dasharray:none;stroke-opacity:1"
         d="m 4395.69,2374.26 -12.75,5.06 -38.41,103.1 11.7,81.9 -9.38,19.73 14.8,7.14 47.24,-8.89 43.87,-19.91 11.78,7.54 16.82,-2.53 21.13,-17.28 5.65,-20.21 8.87,-1.38 -4.32,-11.48 9.67,-12.26 5.18,-4.2 6.61,-32.69 -9.2,-9.99 z" /><path
         id="path328"
         style="fill:#818283;fill-opacity:1;fill-rule:evenodd;stroke:none"
         d="m 3947.1,2382.54 -18.6,-9.66 -10.58,-1.75 -8.33,-20.6 -9.09,-4.56 -1.42,-8.92 -7.8,-7.75 -3.88,-11.5 -11.35,-6.03 -126.08,129.04 -2.99,6.18 43.31,56.93 -5.58,15 1.41,11.04 53.6,-1.54 50.16,50.3 28.8,-21.1 6.72,-9.44 5.44,-21.59 5.51,1.43 18.46,-39.51 12.99,-20.53 -16.68,-48.73 2.35,-24.29 -6.37,-12.42" /><path
         id="path330"
         style="fill:none;stroke:#fbfcfc;stroke-width:2.5;stroke-linecap:round;stroke-linejoin:round;stroke-miterlimit:4;stroke-dasharray:none;stroke-opacity:1"
         d="m 3947.1,2382.54 -18.6,-9.66 -10.58,-1.75 -8.33,-20.6 -9.09,-4.56 -1.42,-8.92 -7.8,-7.75 -3.88,-11.5 -11.35,-6.03 -126.08,129.04 -2.99,6.18 43.31,56.93 -5.58,15 1.41,11.04 53.6,-1.54 50.16,50.3 28.8,-21.1 6.72,-9.44 5.44,-21.59 5.51,1.43 18.46,-39.51 12.99,-20.53 -16.68,-48.73 2.35,-24.29 z" /><path
         id="path332"
         style="fill:#818283;fill-opacity:1;fill-rule:nonzero;stroke:none"
         d="m 4789.5,2520.59 -19.49,-21.5 -17.65,-25.96 -18.03,-34.43 -5.88,-1.34 3.68,-9.38 25.37,43.36 61.43,75.69 z m -84.8,-38.35 52.59,26.89 52.5,67.52 -4.97,11.21 -11.71,-13.56 -20.31,1.29 -7.1,29.08 -28.67,-17.36 -47.46,-1.91 7.78,-26.28 7.25,-6.47 -42.15,-17.47 -101.1,-7.04 -2.86,-6.66 -5.3,0.17 -9.33,-7.4 -20,-3.71 -1.5,-5.75 5.18,-4.2 33.3,-26.93 92.45,5.51 -40.77,-5.86 -53.12,-9.61 -9.45,-3.87 -5.88,-6.42 92.11,21.84 8.68,0.91 40.73,-2.85 v 2.85 l -14.1,4.1 z m 29.52,-32 -1.49,4.42 -4.29,4.66 -3.56,2.77 -23.32,8.44 h -6.94 v -2.85 l 3.91,-2.52 17.1,-6.13 12.33,-9.42 1.54,-1.54 4.72,2.17" /><path
         id="path334"
         style="fill:none;stroke:#fbfcfc;stroke-width:2.5;stroke-linecap:round;stroke-linejoin:round;stroke-miterlimit:4;stroke-dasharray:none;stroke-opacity:1"
         d="m 4789.5,2520.59 -19.49,-21.5 -17.65,-25.96 -18.03,-34.43 -5.88,-1.34 3.68,-9.38 25.37,43.36 61.43,75.69 z m -84.8,-38.35 52.59,26.89 52.5,67.52 -4.97,11.21 -11.71,-13.56 -20.31,1.29 -7.1,29.08 -28.67,-17.36 -47.46,-1.91 7.78,-26.28 7.25,-6.47 -42.15,-17.47 -101.1,-7.04 -2.86,-6.66 -5.3,0.17 -9.33,-7.4 -20,-3.71 -1.5,-5.75 5.18,-4.2 33.3,-26.93 92.45,5.51 -40.77,-5.86 -53.12,-9.61 -9.45,-3.87 -5.88,-6.42 92.11,21.84 8.68,0.91 40.73,-2.85 v 2.85 l -14.1,4.1 z m 29.52,-32 -1.49,4.42 -4.29,4.66 -3.56,2.77 -23.32,8.44 h -6.94 v -2.85 l 3.91,-2.52 17.1,-6.13 12.33,-9.42 1.54,-1.54 z" /><path
         id="path336"
         style="fill:#818283;fill-opacity:1;fill-rule:evenodd;stroke:none"
         d="m 4151.12,2348.74 -22.83,-12.45 -36.87,3.04 -67.72,32.52 -7.35,-0.08 -2.94,5.82 -48.51,-4.02 -8.28,1.59 -9.52,7.38 6.37,12.42 -2.35,24.29 16.68,48.73 -12.99,20.53 -18.46,39.51 21.86,5.55 106.31,-0.34 6.14,4.77 33.26,-39.47 4.85,-15.41 7.73,-12.28 8.44,-3.89 5.59,-15.23 4.28,-4 -3.45,-2.37 4.74,-10.17 10.58,-9.89 6.03,-11.31 -1.9,-10.6 2.49,-8.45 28.89,-18.44 -31.07,-27.75" /><path
         id="path338"
         style="fill:none;stroke:#fbfcfc;stroke-width:2.5;stroke-linecap:round;stroke-linejoin:round;stroke-miterlimit:4;stroke-dasharray:none;stroke-opacity:1"
         d="m 4151.12,2348.74 -22.83,-12.45 -36.87,3.04 -67.72,32.52 -7.35,-0.08 -2.94,5.82 -48.51,-4.02 -8.28,1.59 -9.52,7.38 6.37,12.42 -2.35,24.29 16.68,48.73 -12.99,20.53 -18.46,39.51 21.86,5.55 106.31,-0.34 6.14,4.77 33.26,-39.47 4.85,-15.41 7.73,-12.28 8.44,-3.89 5.59,-15.23 4.28,-4 -3.45,-2.37 4.74,-10.17 10.58,-9.89 6.03,-11.31 -1.9,-10.6 2.49,-8.45 28.89,-18.44 z" /><path
         id="path340"
         style="fill:#818283;fill-opacity:1;fill-rule:evenodd;stroke:none"
         d="m 4230.82,2321.68 -35.29,14.49 -8.31,-0.77 -10.09,-5.77 -3.37,1.18 -22.64,17.93 31.07,27.75 -28.89,18.44 -2.49,8.45 1.9,10.6 33.85,50.73 14.55,9.06 -0.01,8.98 32.62,3.27 9.55,-4.88 16.86,0.96 4.27,-3.46 80.13,3.78 38.41,-103.1 12.75,-5.06 -16.28,-14.8 -7.77,5.79 2.4,-9.2 -50.04,-44.09 -19.83,22.29 -6.51,11.69 -20.2,-9.79 -11.4,3.79 -7.5,-6.92 -1.99,3.95 -9.9,3.94 -5.2,-5.48 2.63,-9.18 -13.28,-4.57" /><path
         id="path342"
         style="fill:none;stroke:#fbfcfc;stroke-width:2.5;stroke-linecap:round;stroke-linejoin:round;stroke-miterlimit:4;stroke-dasharray:none;stroke-opacity:1"
         d="m 4230.82,2321.68 -35.29,14.49 -8.31,-0.77 -10.09,-5.77 -3.37,1.18 -22.64,17.93 31.07,27.75 -28.89,18.44 -2.49,8.45 1.9,10.6 33.85,50.73 14.55,9.06 -0.01,8.98 32.62,3.27 9.55,-4.88 16.86,0.96 4.27,-3.46 80.13,3.78 38.41,-103.1 12.75,-5.06 -16.28,-14.8 -7.77,5.79 2.4,-9.2 -50.04,-44.09 -19.83,22.29 -6.51,11.69 -20.2,-9.79 -11.4,3.79 -7.5,-6.92 -1.99,3.95 -9.9,3.94 -5.2,-5.48 2.63,-9.18 z" /><path
         id="path344"
         style="fill:#818283;fill-opacity:1;fill-rule:evenodd;stroke:none"
         d="m 4017.74,2166.31 -141.69,145.46 11.35,6.03 3.88,11.5 7.8,7.75 1.42,8.92 9.09,4.56 8.33,20.6 10.58,1.75 18.6,9.66 9.52,-7.38 8.28,-1.59 48.51,4.02 2.94,-5.82 7.35,0.08 67.72,-32.52 36.87,-3.04 22.83,12.45 22.64,-17.93 3.37,-1.18 10.09,5.77 -35.95,-60.19 -38.07,-5.28 4.21,-6.39 -21.76,-19.9 -22.77,8.36 -11.67,-1.49 -5.77,-8.46 -6.48,-30.73 -8.24,-11.58 -14.37,-8.33 -1.51,-13.14 -7.1,-11.96" /><path
         id="path346"
         style="fill:none;stroke:#fbfcfc;stroke-width:2.5;stroke-linecap:round;stroke-linejoin:round;stroke-miterlimit:4;stroke-dasharray:none;stroke-opacity:1"
         d="m 4017.74,2166.31 -141.69,145.46 11.35,6.03 3.88,11.5 7.8,7.75 1.42,8.92 9.09,4.56 8.33,20.6 10.58,1.75 18.6,9.66 9.52,-7.38 8.28,-1.59 48.51,4.02 2.94,-5.82 7.35,0.08 67.72,-32.52 36.87,-3.04 22.83,12.45 22.64,-17.93 3.37,-1.18 10.09,5.77 -35.95,-60.19 -38.07,-5.28 4.21,-6.39 -21.76,-19.9 -22.77,8.36 -11.67,-1.49 -5.77,-8.46 -6.48,-30.73 -8.24,-11.58 -14.37,-8.33 -1.51,-13.14 z" /><path
         id="path348"
         style="fill:#818283;fill-opacity:1;fill-rule:evenodd;stroke:none"
         d="m 4252.88,2264.57 -1.74,21.7 -3.18,0.44 -2.67,7.5 -5.77,2.54 1.63,6.1 -3.93,0.83 -1.45,11.38 -4.95,6.62 13.28,4.57 -2.63,9.18 5.2,5.48 9.9,-3.94 1.99,-3.95 7.5,6.92 11.4,-3.79 20.2,9.79 6.51,-11.69 19.83,-22.29 -38.53,-45.96 -10.15,-50.5 -10.95,-2.92 -11.49,51.99" /><path
         id="path350"
         style="fill:none;stroke:#fbfcfc;stroke-width:2.5;stroke-linecap:round;stroke-linejoin:round;stroke-miterlimit:4;stroke-dasharray:none;stroke-opacity:1"
         d="m 4252.88,2264.57 -1.74,21.7 -3.18,0.44 -2.67,7.5 -5.77,2.54 1.63,6.1 -3.93,0.83 -1.45,11.38 -4.95,6.62 13.28,4.57 -2.63,9.18 5.2,5.48 9.9,-3.94 1.99,-3.95 7.5,6.92 11.4,-3.79 20.2,9.79 6.51,-11.69 19.83,-22.29 -38.53,-45.96 -10.15,-50.5 -10.95,-2.92 z" /><path
         id="path352"
         style="fill:#818283;fill-opacity:1;fill-rule:evenodd;stroke:none"
         d="m 4017.74,2166.31 7.1,11.96 1.51,13.14 14.37,8.33 8.24,11.58 6.48,30.73 5.77,8.46 11.67,1.49 22.77,-8.36 21.76,19.9 -4.21,6.39 38.07,5.28 35.95,60.19 8.31,0.77 35.29,-14.49 4.95,-6.62 1.45,-11.38 3.93,-0.83 -1.63,-6.1 5.77,-2.54 2.67,-7.5 3.18,-0.44 1.74,-21.7 0.75,-80.34 -25.81,-31.94 -184.37,-13.16 -25.71,27.18" /><path
         id="path354"
         style="fill:none;stroke:#fbfcfc;stroke-width:2.5;stroke-linecap:round;stroke-linejoin:round;stroke-miterlimit:4;stroke-dasharray:none;stroke-opacity:1"
         d="m 4017.74,2166.31 7.1,11.96 1.51,13.14 14.37,8.33 8.24,11.58 6.48,30.73 5.77,8.46 11.67,1.49 22.77,-8.36 21.76,19.9 -4.21,6.39 38.07,5.28 35.95,60.19 8.31,0.77 35.29,-14.49 4.95,-6.62 1.45,-11.38 3.93,-0.83 -1.63,-6.1 5.77,-2.54 2.67,-7.5 3.18,-0.44 1.74,-21.7 0.75,-80.34 -25.81,-31.94 -184.37,-13.16 z" /><path
         id="path356"
         style="fill:#818283;fill-opacity:1;fill-rule:evenodd;stroke:none"
         d="m 2906.09,2994.53 -6.78,-6.58 5.56,-8.61 -0.7,-3.43 -13.99,-1.99 -5.65,3.68 -14.9,22.06 2.16,15.79 -6.63,12.77 -5.23,27.04 19.4,12.38 29.54,56.02 7.43,11.51 5.81,-9.97 -4.25,-18.93 2.71,-9.65 4.52,-4.28 11.82,-3 9.45,-9.9 1.75,-20.31 3.7,-2.02 25.02,-19.29 -23.86,-41.05 -19.31,4.19 -7.09,8.02 -6.78,2.14 -7.21,-5.07 -6.49,-11.52" /><path
         id="path358"
         style="fill:none;stroke:#fbfcfc;stroke-width:2.5;stroke-linecap:round;stroke-linejoin:round;stroke-miterlimit:4;stroke-dasharray:none;stroke-opacity:1"
         d="m 2906.09,2994.53 -6.78,-6.58 5.56,-8.61 -0.7,-3.43 -13.99,-1.99 -5.65,3.68 -14.9,22.06 2.16,15.79 -6.63,12.77 -5.23,27.04 19.4,12.38 29.54,56.02 7.43,11.51 5.81,-9.97 -4.25,-18.93 2.71,-9.65 4.52,-4.28 11.82,-3 9.45,-9.9 1.75,-20.31 3.7,-2.02 25.02,-19.29 -23.86,-41.05 -19.31,4.19 -7.09,8.02 -6.78,2.14 -7.21,-5.07 z" /><path
         id="path360"
         style="fill:#818283;fill-opacity:1;fill-rule:evenodd;stroke:none"
         d="m 2846.03,2937.55 -9.4,-0.02 1.91,34.15 -2.9,8.84 -11.85,5.61 -3.78,5.22 -1.11,22.74 -11.18,0.88 -2.89,-8.22 -6.17,0.61 -14.49,18.26 -2.7,-7.47 -6.77,1.17 -3.58,4.65 -1.43,18.77 -13.77,3.46 -7.86,-1.34 11.69,9.79 20.96,9.82 16.79,-0.74 18.46,11.16 18.16,-3.1 12.18,-18.16 13.63,1.63 5.23,-27.04 6.63,-12.77 -2.16,-15.79 14.9,-22.06 5.65,-3.68 1.7,-7.54 -2.55,-6.31 -14.82,-7.89 -21.42,-4.06 -7.06,-10.57" /><path
         id="path362"
         style="fill:none;stroke:#fbfcfc;stroke-width:2.5;stroke-linecap:round;stroke-linejoin:round;stroke-miterlimit:4;stroke-dasharray:none;stroke-opacity:1"
         d="m 2846.03,2937.55 -9.4,-0.02 1.91,34.15 -2.9,8.84 -11.85,5.61 -3.78,5.22 -1.11,22.74 -11.18,0.88 -2.89,-8.22 -6.17,0.61 -14.49,18.26 -2.7,-7.47 -6.77,1.17 -3.58,4.65 -1.43,18.77 -13.77,3.46 -7.86,-1.34 11.69,9.79 20.96,9.82 16.79,-0.74 18.46,11.16 18.16,-3.1 12.18,-18.16 13.63,1.63 5.23,-27.04 6.63,-12.77 -2.16,-15.79 14.9,-22.06 5.65,-3.68 1.7,-7.54 -2.55,-6.31 -14.82,-7.89 -21.42,-4.06 z" /><path
         id="path364"
         style="fill:#818283;fill-opacity:1;fill-rule:evenodd;stroke:none"
         d="m 2791.78,2887.11 -0.8,9.44 -13.62,8.19 -6.77,9.86 -1.2,17.39 -10.1,4.67 -10.35,-1.01 -12.06,28.49 -15.44,9.46 1.07,17.85 -7.78,10.42 10.74,8.63 22.59,34.36 7.86,1.34 13.77,-3.46 1.43,-18.77 3.58,-4.65 6.77,-1.17 2.7,7.47 14.49,-18.26 6.17,-0.61 2.89,8.22 11.18,-0.88 1.11,-22.74 3.78,-5.22 11.85,-5.61 2.9,-8.84 -1.91,-34.15 9.4,0.02 -12.09,-8.41 -3.28,-15.78 -16.07,-18.15 -22.81,-8.1" /><path
         id="path366"
         style="fill:none;stroke:#fbfcfc;stroke-width:2.5;stroke-linecap:round;stroke-linejoin:round;stroke-miterlimit:4;stroke-dasharray:none;stroke-opacity:1"
         d="m 2791.78,2887.11 -0.8,9.44 -13.62,8.19 -6.77,9.86 -1.2,17.39 -10.1,4.67 -10.35,-1.01 -12.06,28.49 -15.44,9.46 1.07,17.85 -7.78,10.42 10.74,8.63 22.59,34.36 7.86,1.34 13.77,-3.46 1.43,-18.77 3.58,-4.65 6.77,-1.17 2.7,7.47 14.49,-18.26 6.17,-0.61 2.89,8.22 11.18,-0.88 1.11,-22.74 3.78,-5.22 11.85,-5.61 2.9,-8.84 -1.91,-34.15 9.4,0.02 -12.09,-8.41 -3.28,-15.78 -16.07,-18.15 z" /><path
         id="path368"
         style="fill:#818283;fill-opacity:1;fill-rule:evenodd;stroke:none"
         d="m 2583.1,2991.76 13.44,-0.39 16.1,-11.1 10.91,14.92 0.96,12.93 3.51,5.04 40.37,21.83 5.36,1.09 8,-4.75 4.12,-8.59 -4.59,-7.91 2.2,-16.83 15.28,-3 15.97,6.87 7.78,-10.42 -1.07,-17.85 15.44,-9.46 12.06,-28.49 -32.05,-7.45 -89.91,-42.57 -13.3,-3.79 -12.74,2.84 -12.8,-7.57 -8.95,22.62 -15.1,4.65 3.09,11.45 -6.67,10.58 18.92,33.54 -2.45,23.25 6.12,8.56" /><path
         id="path370"
         style="fill:none;stroke:#fbfcfc;stroke-width:2.5;stroke-linecap:round;stroke-linejoin:round;stroke-miterlimit:4;stroke-dasharray:none;stroke-opacity:1"
         d="m 2583.1,2991.76 13.44,-0.39 16.1,-11.1 10.91,14.92 0.96,12.93 3.51,5.04 40.37,21.83 5.36,1.09 8,-4.75 4.12,-8.59 -4.59,-7.91 2.2,-16.83 15.28,-3 15.97,6.87 7.78,-10.42 -1.07,-17.85 15.44,-9.46 12.06,-28.49 -32.05,-7.45 -89.91,-42.57 -13.3,-3.79 -12.74,2.84 -12.8,-7.57 -8.95,22.62 -15.1,4.65 3.09,11.45 -6.67,10.58 18.92,33.54 -2.45,23.25 z" /><path
         id="path372"
         style="fill:#818283;fill-opacity:1;fill-rule:evenodd;stroke:none"
         d="m 2948.41,2835.84 -5.28,-3.87 -2.84,-11.57 -7.4,-2.79 -35.49,-3.72 -11.69,10.14 -11.7,-7.23 -27.26,-3.99 -18.26,3.94 -32.92,16.79 -7.67,8.51 8.57,9.64 -6.39,11 -1.67,13.57 3.37,10.85 22.81,8.1 16.07,18.15 3.28,15.78 12.09,8.41 7.06,10.57 21.42,4.06 14.82,7.89 2.55,6.31 -1.7,7.54 13.99,1.99 0.7,3.43 -5.56,8.61 6.78,6.58 11.88,-26.3 -0.01,-18.38 -9.04,-8.51 -14.31,-3.89 -3.49,-7.65 40.59,-33.81 16.7,-60.15" /><path
         id="path374"
         style="fill:none;stroke:#fbfcfc;stroke-width:2.5;stroke-linecap:round;stroke-linejoin:round;stroke-miterlimit:4;stroke-dasharray:none;stroke-opacity:1"
         d="m 2948.41,2835.84 -5.28,-3.87 -2.84,-11.57 -7.4,-2.79 -35.49,-3.72 -11.69,10.14 -11.7,-7.23 -27.26,-3.99 -18.26,3.94 -32.92,16.79 -7.67,8.51 8.57,9.64 -6.39,11 -1.67,13.57 3.37,10.85 22.81,8.1 16.07,18.15 3.28,15.78 12.09,8.41 7.06,10.57 21.42,4.06 14.82,7.89 2.55,6.31 -1.7,7.54 13.99,1.99 0.7,3.43 -5.56,8.61 6.78,6.58 11.88,-26.3 -0.01,-18.38 -9.04,-8.51 -14.31,-3.89 -3.49,-7.65 40.59,-33.81 z" /><path
         id="path376"
         style="fill:#818283;fill-opacity:1;fill-rule:evenodd;stroke:none"
         d="m 2798.93,2789.84 -21.92,13.06 -16.27,-6.81 2.07,-6.36 -2.99,-2.52 -11.97,4.79 -22.28,-10.18 -15.09,-0.21 -2.5,-6.47 -8.2,-0.59 -4.33,4.78 -18.52,-0.31 -17.02,7.26 -15.29,-6.65 -10.06,-8.76 -12.51,9.82 -4.68,9.67 8.15,28.16 -0.48,16.03 -13.97,19.24 -3.31,1.6 -7.36,-3.43 -6.99,9.43 -5.27,15.72 12.8,7.57 12.74,-2.84 13.3,3.79 89.91,42.57 32.05,7.45 10.35,1.01 10.1,-4.67 1.2,-17.39 6.77,-9.86 13.62,-8.19 0.8,-9.44 -3.37,-10.85 1.67,-13.57 6.39,-11 -8.57,-9.64 7.67,-8.51 32.92,-16.79 -17.66,-5.31 -1.59,-13.62 -4.24,-6.14 -6.07,-1.84" /><path
         id="path378"
         style="fill:none;stroke:#fbfcfc;stroke-width:2.5;stroke-linecap:round;stroke-linejoin:round;stroke-miterlimit:4;stroke-dasharray:none;stroke-opacity:1"
         d="m 2798.93,2789.84 -21.92,13.06 -16.27,-6.81 2.07,-6.36 -2.99,-2.52 -11.97,4.79 -22.28,-10.18 -15.09,-0.21 -2.5,-6.47 -8.2,-0.59 -4.33,4.78 -18.52,-0.31 -17.02,7.26 -15.29,-6.65 -10.06,-8.76 -12.51,9.82 -4.68,9.67 8.15,28.16 -0.48,16.03 -13.97,19.24 -3.31,1.6 -7.36,-3.43 -6.99,9.43 -5.27,15.72 12.8,7.57 12.74,-2.84 13.3,3.79 89.91,42.57 32.05,7.45 10.35,1.01 10.1,-4.67 1.2,-17.39 6.77,-9.86 13.62,-8.19 0.8,-9.44 -3.37,-10.85 1.67,-13.57 6.39,-11 -8.57,-9.64 7.67,-8.51 32.92,-16.79 -17.66,-5.31 -1.59,-13.62 -4.24,-6.14 z" /><path
         id="path380"
         style="fill:#818283;fill-opacity:1;fill-rule:evenodd;stroke:none"
         d="m 2634.56,2770.87 -30.22,-42.52 -29.06,-10.28 -11.68,7.36 -10.73,19.82 -18.02,13.95 -2.51,7.08 -14.1,16.33 -13.71,4.27 -4.79,11.54 -13.2,11.64 8.25,16.32 -7.9,12.96 0.76,16.84 -5.76,6.05 3.67,10.52 -10.48,9.29 -14.84,2.34 1.97,4.04 3.2,7.29 19.79,4.45 14.1,14.09 8.62,0.47 19.7,7.83 24.69,-3.58 8.2,7.44 6.67,-10.58 -3.09,-11.45 15.1,-4.65 8.95,-22.62 5.27,-15.72 6.99,-9.43 7.36,3.43 3.31,-1.6 13.97,-19.24 0.48,-16.03 -8.15,-28.16 4.68,-9.67 12.51,-9.82" /><path
         id="path382"
         style="fill:none;stroke:#fbfcfc;stroke-width:2.5;stroke-linecap:round;stroke-linejoin:round;stroke-miterlimit:4;stroke-dasharray:none;stroke-opacity:1"
         d="m 2634.56,2770.87 -30.22,-42.52 -29.06,-10.28 -11.68,7.36 -10.73,19.82 -18.02,13.95 -2.51,7.08 -14.1,16.33 -13.71,4.27 -4.79,11.54 -13.2,11.64 8.25,16.32 -7.9,12.96 0.76,16.84 -5.76,6.05 3.67,10.52 -10.48,9.29 -14.84,2.34 1.97,4.04 3.2,7.29 19.79,4.45 14.1,14.09 8.62,0.47 19.7,7.83 24.69,-3.58 8.2,7.44 6.67,-10.58 -3.09,-11.45 15.1,-4.65 8.95,-22.62 5.27,-15.72 6.99,-9.43 7.36,3.43 3.31,-1.6 13.97,-19.24 0.48,-16.03 -8.15,-28.16 4.68,-9.67 z" /><path
         id="path384"
         style="fill:#818283;fill-opacity:1;fill-rule:evenodd;stroke:none"
         d="m 2435.65,2729.91 -31.42,-1.67 -16.43,-9.81 -69.69,-8.05 -3.68,6.45 0.24,8.48 18.66,10.69 11.96,11.76 6.25,16.06 -2.14,11.05 -15.43,3.76 -7.2,-6.5 -30.91,8.43 -37.22,3.62 -8.43,4.94 -16.98,-5.4 -8.33,2.67 15.12,8.74 9.74,14.17 17.26,3.52 18.38,13.95 34.85,5.14 19.97,2.82 17.87,-6.89 18.69,1.82 16.08,15.7 24.09,11.62 14.9,11.68 15.09,1.27 13.3,14.45 14.84,-2.34 10.48,-9.29 -3.67,-10.52 5.76,-6.05 -0.76,-16.84 7.9,-12.96 -8.25,-16.32 -15.32,0.44 -6.98,-2.69 -21.16,-18.08 -14.61,-3.15 -3.96,-17.67 11.82,-20.51 -0.68,-18.49" /><path
         id="path386"
         style="fill:none;stroke:#fbfcfc;stroke-width:2.5;stroke-linecap:round;stroke-linejoin:round;stroke-miterlimit:4;stroke-dasharray:none;stroke-opacity:1"
         d="m 2435.65,2729.91 -31.42,-1.67 -16.43,-9.81 -69.69,-8.05 -3.68,6.45 0.24,8.48 18.66,10.69 11.96,11.76 6.25,16.06 -2.14,11.05 -15.43,3.76 -7.2,-6.5 -30.91,8.43 -37.22,3.62 -8.43,4.94 -16.98,-5.4 -8.33,2.67 15.12,8.74 9.74,14.17 17.26,3.52 18.38,13.95 34.85,5.14 19.97,2.82 17.87,-6.89 18.69,1.82 16.08,15.7 24.09,11.62 14.9,11.68 15.09,1.27 13.3,14.45 14.84,-2.34 10.48,-9.29 -3.67,-10.52 5.76,-6.05 -0.76,-16.84 7.9,-12.96 -8.25,-16.32 -15.32,0.44 -6.98,-2.69 -21.16,-18.08 -14.61,-3.15 -3.96,-17.67 11.82,-20.51 z" /><path
         id="path388"
         style="fill:#818283;fill-opacity:1;fill-rule:evenodd;stroke:none"
         d="m 2895.91,2675.62 2.34,24.49 -29.45,31.38 -11.02,6.73 -12.87,20.44 -11.15,3.52 -34.9,-1.56 -6.91,17.56 1.37,6.63 5.61,5.03 6.07,1.84 4.24,6.14 1.59,13.62 17.66,5.31 18.26,-3.94 27.26,3.99 11.7,7.23 11.69,-10.14 35.49,3.72 7.4,2.79 2.84,11.57 5.28,3.87 17.14,4.1 5.41,7.27 16.51,-2.53 1.91,-9.98 3.68,-2.58 -4.53,-88.13 -13.35,-41.08 -7.56,-13.86 -1.98,-15.83 -35.61,0.27 -34.12,2.13" /><path
         id="path390"
         style="fill:none;stroke:#fbfcfc;stroke-width:2.5;stroke-linecap:round;stroke-linejoin:round;stroke-miterlimit:4;stroke-dasharray:none;stroke-opacity:1"
         d="m 2895.91,2675.62 2.34,24.49 -29.45,31.38 -11.02,6.73 -12.87,20.44 -11.15,3.52 -34.9,-1.56 -6.91,17.56 1.37,6.63 5.61,5.03 6.07,1.84 4.24,6.14 1.59,13.62 17.66,5.31 18.26,-3.94 27.26,3.99 11.7,7.23 11.69,-10.14 35.49,3.72 7.4,2.79 2.84,11.57 5.28,3.87 17.14,4.1 5.41,7.27 16.51,-2.53 1.91,-9.98 3.68,-2.58 -4.53,-88.13 -13.35,-41.08 -7.56,-13.86 -1.98,-15.83 -35.61,0.27 z" /><path
         id="path392"
         style="fill:#818283;fill-opacity:1;fill-rule:evenodd;stroke:none"
         d="m 2511.95,2597.87 -18.68,24.36 5.56,9.94 -1.06,3.35 -9.79,8.32 -5.53,11.47 -8.27,8.18 -0.72,26.3 -4.31,3.43 -10.54,-3.74 -7.12,2.01 -8.68,13.82 -7.16,24.6 0.68,18.49 -11.82,20.51 3.96,17.67 14.61,3.15 21.16,18.08 6.98,2.69 15.32,-0.44 13.2,-11.64 4.79,-11.54 13.71,-4.27 14.1,-16.33 2.51,-7.08 18.02,-13.95 10.73,-19.82 11.68,-7.36 -2.62,-26.05 -17.55,-17.46 -4.01,-11.41 2.88,-12.69 -23.69,-26.48 2.78,-9.67 12.38,-6.55 -33.5,-9.89" /><path
         id="path394"
         style="fill:none;stroke:#fbfcfc;stroke-width:2.5;stroke-linecap:round;stroke-linejoin:round;stroke-miterlimit:4;stroke-dasharray:none;stroke-opacity:1"
         d="m 2511.95,2597.87 -18.68,24.36 5.56,9.94 -1.06,3.35 -9.79,8.32 -5.53,11.47 -8.27,8.18 -0.72,26.3 -4.31,3.43 -10.54,-3.74 -7.12,2.01 -8.68,13.82 -7.16,24.6 0.68,18.49 -11.82,20.51 3.96,17.67 14.61,3.15 21.16,18.08 6.98,2.69 15.32,-0.44 13.2,-11.64 4.79,-11.54 13.71,-4.27 14.1,-16.33 2.51,-7.08 18.02,-13.95 10.73,-19.82 11.68,-7.36 -2.62,-26.05 -17.55,-17.46 -4.01,-11.41 2.88,-12.69 -23.69,-26.48 2.78,-9.67 12.38,-6.55 z" /><path
         id="path396"
         style="fill:#818283;fill-opacity:1;fill-rule:evenodd;stroke:none"
         d="m 2693.39,2659.57 -6.5,14.67 -2.37,23.82 -4.86,10.4 0.85,10.57 -45.95,51.84 10.06,8.76 15.29,6.65 17.02,-7.26 18.52,0.31 4.33,-4.78 8.2,0.59 2.5,6.47 15.09,0.21 22.28,10.18 11.97,-4.79 2.99,2.52 -2.07,6.36 16.27,6.81 21.92,-13.06 -5.61,-5.03 -1.37,-6.63 6.91,-17.56 -19.38,-34.73 -8.71,-10 -1.28,-17.53 -4.38,-0.11 2.43,-20.81 -3.13,-4.03 -3.81,-0.09 -6.17,10.56 -16.34,-16.01 -9.76,1.63 -19.58,-7.83 -15.36,-2.1" /><path
         id="path398"
         style="fill:none;stroke:#fbfcfc;stroke-width:2.5;stroke-linecap:round;stroke-linejoin:round;stroke-miterlimit:4;stroke-dasharray:none;stroke-opacity:1"
         d="m 2693.39,2659.57 -6.5,14.67 -2.37,23.82 -4.86,10.4 0.85,10.57 -45.95,51.84 10.06,8.76 15.29,6.65 17.02,-7.26 18.52,0.31 4.33,-4.78 8.2,0.59 2.5,6.47 15.09,0.21 22.28,10.18 11.97,-4.79 2.99,2.52 -2.07,6.36 16.27,6.81 21.92,-13.06 -5.61,-5.03 -1.37,-6.63 6.91,-17.56 -19.38,-34.73 -8.71,-10 -1.28,-17.53 -4.38,-0.11 2.43,-20.81 -3.13,-4.03 -3.81,-0.09 -6.17,10.56 -16.34,-16.01 -9.76,1.63 -19.58,-7.83 z" /><path
         id="path400"
         style="fill:#818283;fill-opacity:1;fill-rule:evenodd;stroke:none"
         d="m 2312.55,2701.51 -19.6,-5.66 -12.96,4.76 -15.22,-0.79 -28.69,-11.5 -13.28,-1.49 -10.59,7.09 -3.95,12.26 -9.13,12.61 0.56,13.58 7.75,19.74 -2.15,14.42 19.61,19.86 8.33,-2.67 16.98,5.4 8.43,-4.94 37.22,-3.62 30.91,-8.43 7.2,6.5 15.43,-3.76 2.14,-11.05 -6.25,-16.06 -11.96,-11.76 -18.66,-10.69 -0.24,-8.48 3.68,-6.45 -5.56,-8.87" /><path
         id="path402"
         style="fill:none;stroke:#fbfcfc;stroke-width:2.5;stroke-linecap:round;stroke-linejoin:round;stroke-miterlimit:4;stroke-dasharray:none;stroke-opacity:1"
         d="m 2312.55,2701.51 -19.6,-5.66 -12.96,4.76 -15.22,-0.79 -28.69,-11.5 -13.28,-1.49 -10.59,7.09 -3.95,12.26 -9.13,12.61 0.56,13.58 7.75,19.74 -2.15,14.42 19.61,19.86 8.33,-2.67 16.98,5.4 8.43,-4.94 37.22,-3.62 30.91,-8.43 7.2,6.5 15.43,-3.76 2.14,-11.05 -6.25,-16.06 -11.96,-11.76 -18.66,-10.69 -0.24,-8.48 3.68,-6.45 z" /><path
         id="path404"
         style="fill:#818283;fill-opacity:1;fill-rule:evenodd;stroke:none"
         d="m 2585.91,2620.64 -40.46,-12.88 -12.38,6.55 -2.78,9.67 23.69,26.48 -2.88,12.69 4.01,11.41 17.55,17.46 2.62,26.05 29.06,10.28 30.22,42.52 45.95,-51.84 -0.85,-10.57 4.86,-10.4 2.37,-23.82 6.5,-14.67 -28.58,-12.43 -10.68,0.83 -0.67,-9.78 -3.15,-2.72 -25.04,-2.4 -39.36,-12.43" /><path
         id="path406"
         style="fill:none;stroke:#fbfcfc;stroke-width:2.5;stroke-linecap:round;stroke-linejoin:round;stroke-miterlimit:4;stroke-dasharray:none;stroke-opacity:1"
         d="m 2585.91,2620.64 -40.46,-12.88 -12.38,6.55 -2.78,9.67 23.69,26.48 -2.88,12.69 4.01,11.41 17.55,17.46 2.62,26.05 29.06,10.28 30.22,42.52 45.95,-51.84 -0.85,-10.57 4.86,-10.4 2.37,-23.82 6.5,-14.67 -28.58,-12.43 -10.68,0.83 -0.67,-9.78 -3.15,-2.72 -25.04,-2.4 z" /><path
         id="path408"
         style="fill:#818283;fill-opacity:1;fill-rule:evenodd;stroke:none"
         d="m 2815.14,2677.63 -23.06,0.77 -14.36,-4.47 -10.18,3.51 -2.43,20.81 4.38,0.11 1.28,17.53 8.71,10 19.38,34.73 34.9,1.56 11.15,-3.52 12.87,-20.44 11.02,-6.73 29.45,-31.38 -2.34,-24.49 -80.77,2.01" /><path
         id="path410"
         style="fill:none;stroke:#fbfcfc;stroke-width:2.5;stroke-linecap:round;stroke-linejoin:round;stroke-miterlimit:4;stroke-dasharray:none;stroke-opacity:1"
         d="m 2815.14,2677.63 -23.06,0.77 -14.36,-4.47 -10.18,3.51 -2.43,20.81 4.38,0.11 1.28,17.53 8.71,10 19.38,34.73 34.9,1.56 11.15,-3.52 12.87,-20.44 11.02,-6.73 29.45,-31.38 -2.34,-24.49 z" /><path
         id="path412"
         style="fill:#818283;fill-opacity:1;fill-rule:evenodd;stroke:none"
         d="m 2511.95,2597.87 -137.61,-3.41 -4.81,11.45 -8.8,6.62 -2.98,8.34 -27.58,29.59 -0.44,6.56 -24.68,-1.88 -7.35,2.91 8.95,14.44 -3.13,6.84 8.67,7.11 0.36,15.07 5.56,8.87 69.69,8.05 16.43,9.81 31.42,1.67 7.16,-24.6 8.68,-13.82 7.12,-2.01 10.54,3.74 4.31,-3.43 0.72,-26.3 8.27,-8.18 5.53,-11.47 9.79,-8.32 1.06,-3.35 -5.56,-9.94 18.68,-24.36" /><path
         id="path414"
         style="fill:none;stroke:#fbfcfc;stroke-width:2.5;stroke-linecap:round;stroke-linejoin:round;stroke-miterlimit:4;stroke-dasharray:none;stroke-opacity:1"
         d="m 2511.95,2597.87 -137.61,-3.41 -4.81,11.45 -8.8,6.62 -2.98,8.34 -27.58,29.59 -0.44,6.56 -24.68,-1.88 -7.35,2.91 8.95,14.44 -3.13,6.84 8.67,7.11 0.36,15.07 5.56,8.87 69.69,8.05 16.43,9.81 31.42,1.67 7.16,-24.6 8.68,-13.82 7.12,-2.01 10.54,3.74 4.31,-3.43 0.72,-26.3 8.27,-8.18 5.53,-11.47 9.79,-8.32 1.06,-3.35 -5.56,-9.94 z" /><path
         id="path416"
         style="fill:#818283;fill-opacity:1;fill-rule:evenodd;stroke:none"
         d="m 2111.1,2684.82 22.02,21.15 15.64,-8.54 26.42,1.89 19.92,11.2 4.03,8.27 9.13,-12.61 3.95,-12.26 10.59,-7.09 13.28,1.49 28.69,11.5 15.22,0.79 12.96,-4.76 19.6,5.66 -0.36,-15.07 -8.67,-7.11 3.13,-6.84 -8.95,-14.44 -5.37,0.91 -33.32,-9.21 -18.08,-22.9 -15.41,-9.08 -2.34,-12.12 -9.73,-12.41 -43.88,-0.35 -69.57,0.32 11.1,91.61" /><path
         id="path418"
         style="fill:none;stroke:#fbfcfc;stroke-width:2.5;stroke-linecap:round;stroke-linejoin:round;stroke-miterlimit:4;stroke-dasharray:none;stroke-opacity:1"
         d="m 2111.1,2684.82 22.02,21.15 15.64,-8.54 26.42,1.89 19.92,11.2 4.03,8.27 9.13,-12.61 3.95,-12.26 10.59,-7.09 13.28,1.49 28.69,11.5 15.22,0.79 12.96,-4.76 19.6,5.66 -0.36,-15.07 -8.67,-7.11 3.13,-6.84 -8.95,-14.44 -5.37,0.91 -33.32,-9.21 -18.08,-22.9 -15.41,-9.08 -2.34,-12.12 -9.73,-12.41 -43.88,-0.35 -69.57,0.32 z" /><path
         id="path420"
         style="fill:#818283;fill-opacity:1;fill-rule:evenodd;stroke:none"
         d="m 2230.55,2593.37 -17.1,-0.13 9.73,12.41 2.34,12.12 15.41,9.08 18.08,22.9 33.32,9.21 5.37,-0.91 7.35,-2.91 24.68,1.88 0.44,-6.56 27.58,-29.59 2.98,-8.34 8.8,-6.62 4.81,-11.45 -12.32,-1.02 -131.47,-0.07" /><path
         id="path422"
         style="fill:none;stroke:#fbfcfc;stroke-width:2.5;stroke-linecap:round;stroke-linejoin:round;stroke-miterlimit:4;stroke-dasharray:none;stroke-opacity:1"
         d="m 2230.55,2593.37 -17.1,-0.13 9.73,12.41 2.34,12.12 15.41,9.08 18.08,22.9 33.32,9.21 5.37,-0.91 7.35,-2.91 24.68,1.88 0.44,-6.56 27.58,-29.59 2.98,-8.34 8.8,-6.62 4.81,-11.45 -12.32,-1.02 z" /><g
         transform="scale(10)"
         id="g424"><text
           id="text428"
           style="font-variant:normal;font-weight:300;font-size:8px;font-family:Roboto;-inkscape-font-specification:Roboto-Light;writing-mode:lr-tb;fill:#2e2d2d;fill-opacity:1;fill-rule:nonzero;stroke:none"
           transform="matrix(1,0,0,-1,583.709,12.168)"><tspan
             id="tspan426"
             y="0"
             x="0 5.2090058 9.7422028 14.232431 18.226072 21.028788 22.925257 27.462358 31.995508 34.73188 36.756737 43.231354 45.256752 49.848583 52.57708 56.778229 60.978844 63.004242 67.8461 72.047256 76.271866 78.930016 83.462723 86.265442 88.29084 95.30452 99.685379 104.21857 108.37285 110.36259 114.5872 119.1204">Copyright  Free Vector Maps.com</tspan></text>
</g></g></g></svg>